<svg width="2435" height="1113" xmlns="http://www.w3.org/2000/svg" xmlns:xlink="http://www.w3.org/1999/xlink" xml:space="preserve" overflow="hidden"><defs><clipPath id="clip0"><rect x="972" y="878" width="2435" height="1113"/></clipPath><clipPath id="clip1"><rect x="3261" y="1112" width="63" height="61"/></clipPath><clipPath id="clip2"><rect x="3261" y="1112" width="63" height="61"/></clipPath><clipPath id="clip3"><rect x="3261" y="1112" width="63" height="61"/></clipPath><clipPath id="clip4"><rect x="3261" y="1182" width="63" height="63"/></clipPath><clipPath id="clip5"><rect x="3261" y="1182" width="63" height="63"/></clipPath><clipPath id="clip6"><rect x="3261" y="1182" width="63" height="63"/></clipPath><clipPath id="clip7"><rect x="3261" y="1254" width="63" height="61"/></clipPath><clipPath id="clip8"><rect x="3261" y="1254" width="63" height="61"/></clipPath><clipPath id="clip9"><rect x="3261" y="1254" width="63" height="61"/></clipPath><clipPath id="clip10"><rect x="3261" y="1325" width="63" height="61"/></clipPath><clipPath id="clip11"><rect x="3261" y="1325" width="63" height="61"/></clipPath><clipPath id="clip12"><rect x="3261" y="1325" width="63" height="61"/></clipPath><clipPath id="clip13"><rect x="3261" y="1395" width="63" height="63"/></clipPath><clipPath id="clip14"><rect x="3261" y="1395" width="63" height="63"/></clipPath><clipPath id="clip15"><rect x="3261" y="1395" width="63" height="63"/></clipPath><clipPath id="clip16"><rect x="2856" y="1551" width="134" height="134"/></clipPath><clipPath id="clip17"><rect x="2856" y="1551" width="134" height="134"/></clipPath><clipPath id="clip18"><rect x="2856" y="1551" width="134" height="134"/></clipPath><clipPath id="clip19"><rect x="2854" y="886" width="134" height="134"/></clipPath><clipPath id="clip20"><rect x="2854" y="886" width="134" height="134"/></clipPath><clipPath id="clip21"><rect x="2854" y="886" width="134" height="134"/></clipPath><clipPath id="clip22"><path d="M1317.78 1492.74 1376.85 1433.68 1435.92 1492.74 1376.85 1551.81Z" fill-rule="evenodd" clip-rule="evenodd"/></clipPath><clipPath id="clip23"><path d="M1317.78 1492.74 1376.85 1433.68 1435.92 1492.74 1376.85 1551.81Z" fill-rule="evenodd" clip-rule="evenodd"/></clipPath><clipPath id="clip24"><path d="M1317.78 1492.74 1376.85 1433.68 1435.92 1492.74 1376.85 1551.81Z" fill-rule="evenodd" clip-rule="evenodd"/></clipPath><clipPath id="clip25"><rect x="1002" y="1415" width="225" height="227"/></clipPath><clipPath id="clip26"><rect x="1002" y="1415" width="225" height="227"/></clipPath><clipPath id="clip27"><rect x="1002" y="1415" width="225" height="227"/></clipPath><clipPath id="clip28"><rect x="1343" y="1544" width="63" height="64"/></clipPath><clipPath id="clip29"><rect x="1343" y="1544" width="63" height="64"/></clipPath><clipPath id="clip30"><rect x="1343" y="1544" width="63" height="64"/></clipPath><clipPath id="clip31"><rect x="2018" y="1122" width="135" height="136"/></clipPath><clipPath id="clip32"><rect x="2018" y="1122" width="135" height="136"/></clipPath><clipPath id="clip33"><rect x="2018" y="1122" width="135" height="136"/></clipPath><clipPath id="clip34"><rect x="2018" y="1460" width="136" height="135"/></clipPath><clipPath id="clip35"><rect x="2018" y="1460" width="136" height="135"/></clipPath><clipPath id="clip36"><rect x="2018" y="1460" width="136" height="135"/></clipPath><clipPath id="clip37"><rect x="2018" y="1790" width="135" height="135"/></clipPath><clipPath id="clip38"><rect x="2018" y="1790" width="135" height="135"/></clipPath><clipPath id="clip39"><rect x="2018" y="1790" width="135" height="135"/></clipPath></defs><g clip-path="url(#clip0)" transform="translate(-972 -878)"><text fill="#7F7F7F" font-family="Cambria Math,Cambria Math_MSFontService,sans-serif" font-weight="400" font-size="32" transform="translate(2773.2 1398)">ğ‘—<tspan font-size="23" x="10.3584" y="7">3</tspan></text><path d="M1889.42 1860.78 2249.77 1860.78 2249.77 1864.22 1889.42 1864.22ZM1894 1871.67 1866.5 1862.5 1894 1853.33Z" fill="#7F7F7F"/><path d="M1667.5 1858.78 1733.94 1858.78 1733.94 1862.22 1667.5 1862.22ZM1729.36 1851.33 1756.86 1860.5 1729.36 1869.67Z" fill="#7F7F7F"/><path d="M1883.42 1529.78 2368.91 1529.78 2368.91 1533.22 1883.42 1533.22ZM1888 1540.67 1860.5 1531.5 1888 1522.33ZM2364.32 1522.33 2391.82 1531.5 2364.32 1540.67Z" fill="#7F7F7F"/><path d="M1751.5 1527C1751.5 1498.01 1775.01 1474.5 1804 1474.5 1832.99 1474.5 1856.5 1498.01 1856.5 1527 1856.5 1555.99 1832.99 1579.5 1804 1579.5 1775.01 1579.5 1751.5 1555.99 1751.5 1527Z" stroke="#FFFFFF" stroke-width="4.58333" stroke-miterlimit="8" fill="#FFFFFF" fill-rule="evenodd"/><path d="M1757.5 1860C1757.5 1831.01 1780.78 1807.5 1809.5 1807.5 1838.22 1807.5 1861.5 1831.01 1861.5 1860 1861.5 1888.99 1838.22 1912.5 1809.5 1912.5 1780.78 1912.5 1757.5 1888.99 1757.5 1860Z" stroke="#FFFFFF" stroke-width="4.58333" stroke-miterlimit="8" fill="#FFFFFF" fill-rule="evenodd"/><path d="M1889.42 1193.78 2248.92 1193.78 2248.92 1197.22 1889.42 1197.22ZM1894 1204.67 1866.5 1195.5 1894 1186.33Z" fill="#7F7F7F"/><path d="M1757.5 1196C1757.5 1167.01 1780.78 1143.5 1809.5 1143.5 1838.22 1143.5 1861.5 1167.01 1861.5 1196 1861.5 1224.99 1838.22 1248.5 1809.5 1248.5 1780.78 1248.5 1757.5 1224.99 1757.5 1196Z" stroke="#FFFFFF" stroke-width="4.58333" stroke-miterlimit="8" fill="#FFFFFF" fill-rule="evenodd"/><g clip-path="url(#clip1)"><g clip-path="url(#clip2)"><g clip-path="url(#clip3)"><path d="M11.4375 5.08332 11.4375 55.9165 49.5624 55.9165 49.5624 18.7994 35.8463 5.08332ZM36.2295 7.26343 47.3823 18.4162C47.3847 18.4187 47.3847 18.4228 47.3822 18.4252 47.381 18.4263 47.3795 18.427 47.3778 18.427L36.2187 18.427 36.2187 7.26788C36.2187 7.26438 36.2216 7.26159 36.2251 7.26159 36.2267 7.26165 36.2283 7.26228 36.2295 7.26343ZM12.7083 54.6457 12.7083 6.35415 34.9478 6.35415 34.9478 19.6979 48.2915 19.6979 48.2915 54.6457Z" fill="#7F7F7F" transform="matrix(1.00001 0 0 1 3262 1112)"/></g></g></g><text fill="#7F7F7F" font-family="Arial,Arial_MSFontService,sans-serif" font-weight="400" font-size="28" transform="matrix(1 0 0 1 3284.92 1153)">A</text><text fill="#7F7F7F" font-family="Calibri,Calibri_MSFontService,sans-serif" font-weight="400" font-size="48" transform="matrix(6.12323e-17 1 -1 6.12323e-17 3345.86 1171)">data<tspan font-size="48" x="98" y="6.00077e-15">assets</tspan></text><text fill="#7F7F7F" font-family="Calibri,Calibri_MSFontService,sans-serif" font-weight="400" font-size="48" transform="matrix(1 0 0 1 2483.8 1305)">batch<tspan font-size="48" x="-51.5623" y="58">generation</tspan></text><path d="M2555 1586 2589 1586 2589 1561 2555 1561ZM2561.18 1567.25 2582.82 1567.25 2582.82 1579.75 2561.18 1579.75Z" fill="#7F7F7F" fill-rule="evenodd"/><path d="M2475 1586 2512 1586 2512 1561 2475 1561ZM2481.17 1567.25 2505.83 1567.25 2505.83 1579.75 2481.17 1579.75Z" fill="#7F7F7F" fill-rule="evenodd"/><path d="M2541 1496 2472 1496 2472 1521 2541 1521ZM2534.73 1514.75 2478.27 1514.75 2478.27 1502.25 2534.73 1502.25Z" fill="#7F7F7F" fill-rule="evenodd"/><path d="M2465 1456 2575 1456 2575 1431 2465 1431ZM2471.29 1437.25 2568.71 1437.25 2568.71 1449.75 2471.29 1449.75Z" fill="#7F7F7F" fill-rule="evenodd"/><path d="M2510 1489 2576 1489 2576 1464 2510 1464ZM2516.29 1470.25 2569.71 1470.25 2569.71 1482.75 2516.29 1482.75Z" fill="#7F7F7F" fill-rule="evenodd"/><path d="M2436 1404 2436 1617 2648 1617 2648 1610.74 2442.24 1610.74 2442.24 1404 2436 1404Z" fill="#7F7F7F" fill-rule="evenodd"/><path d="M2515 1553 2581 1553 2581 1528 2515 1528ZM2521.29 1534.25 2574.71 1534.25 2574.71 1546.75 2521.29 1546.75Z" fill="#7F7F7F" fill-rule="evenodd"/><path d="M2515 1586 2553 1586 2553 1561 2515 1561ZM2521.33 1567.25 2546.67 1567.25 2546.67 1579.75 2521.33 1579.75Z" fill="#7F7F7F" fill-rule="evenodd"/><path d="M2593 1586 2627 1586 2627 1561 2593 1561ZM2599.18 1567.25 2620.82 1567.25 2620.82 1579.75 2599.18 1579.75Z" fill="#7F7F7F" fill-rule="evenodd"/><path d="M2614 1496 2545 1496 2545 1521 2614 1521ZM2607.73 1514.75 2551.27 1514.75 2551.27 1502.25 2607.73 1502.25Z" fill="#7F7F7F" fill-rule="evenodd"/><path d="M2850.73 1036.51 2961.27 1036.51 2961.27 1108.01 2850.73 1108.01Z" fill="#A5A5A5" fill-rule="evenodd"/><path d="M2961.27 1036.51 3073.05 1036.51 3073.05 1108.01 2961.27 1108.01Z" fill="#A5A5A5" fill-rule="evenodd"/><path d="M3073.05 1036.51 3190.6 1036.51 3190.6 1108.01 3073.05 1108.01Z" fill="#A5A5A5" fill-rule="evenodd"/><path d="M2849.58 1108.01 3191.74 1108.01" stroke="#A5A5A5" stroke-width="2.29167" stroke-miterlimit="8" fill="none" fill-rule="evenodd"/><path d="M2849.58 1179.51 3191.74 1179.51" stroke="#A5A5A5" stroke-width="2.29167" stroke-miterlimit="8" fill="none" fill-rule="evenodd"/><path d="M2849.58 1251.01 3191.74 1251.01" stroke="#A5A5A5" stroke-width="2.29167" stroke-miterlimit="8" fill="none" fill-rule="evenodd"/><path d="M2849.58 1322.51 3191.74 1322.51" stroke="#A5A5A5" stroke-width="2.29167" stroke-miterlimit="8" fill="none" fill-rule="evenodd"/><path d="M2849.58 1394.01 3191.74 1394.01" stroke="#A5A5A5" stroke-width="2.29167" stroke-miterlimit="8" fill="none" fill-rule="evenodd"/><path d="M2850.73 1035.37 2850.73 1466.66" stroke="#A5A5A5" stroke-width="2.29167" stroke-miterlimit="8" fill="none" fill-rule="evenodd"/><path d="M3190.6 1035.37 3190.6 1466.66" stroke="#A5A5A5" stroke-width="2.29167" stroke-miterlimit="8" fill="none" fill-rule="evenodd"/><path d="M2849.58 1036.51 3191.74 1036.51" stroke="#A5A5A5" stroke-width="2.29167" stroke-miterlimit="8" fill="none" fill-rule="evenodd"/><path d="M2849.58 1465.51 3191.74 1465.51" stroke="#A5A5A5" stroke-width="2.29167" stroke-miterlimit="8" fill="none" fill-rule="evenodd"/><text fill="#FFFFFF" font-family="Calibri,Calibri_MSFontService,sans-serif" font-weight="400" font-size="32" transform="matrix(1 0 0 1 2893.97 1083)">id<tspan font-size="32" x="102.852" y="0">file</tspan><tspan font-size="32" x="213.508" y="0">size</tspan><tspan fill="#7F7F7F" font-size="32" x="4.0105" y="72">1</tspan><tspan fill="#7F7F7F" font-size="32" x="114.023" y="72">A</tspan><tspan fill="#7F7F7F" font-size="32" x="229.836" y="72">4</tspan><tspan fill="#7F7F7F" font-size="32" x="4.0105" y="143">2</tspan><tspan fill="#7F7F7F" font-size="32" x="114.597" y="143">B</tspan><tspan fill="#7F7F7F" font-size="32" x="229.836" y="143">6</tspan><tspan fill="#7F7F7F" font-size="32" x="4.0105" y="215">3</tspan><tspan fill="#7F7F7F" font-size="32" x="114.597" y="215">C</tspan><tspan fill="#7F7F7F" font-size="32" x="221.815" y="215">10</tspan><tspan fill="#7F7F7F" font-size="32" x="4.0105" y="286">4</tspan><tspan fill="#7F7F7F" font-size="32" x="113.451" y="286">D</tspan><tspan fill="#7F7F7F" font-size="32" x="229.836" y="286">2</tspan><tspan fill="#7F7F7F" font-size="32" x="4.0105" y="358">5</tspan><tspan fill="#7F7F7F" font-size="32" x="115.456" y="358">E</tspan><tspan fill="#7F7F7F" font-size="32" x="229.836" y="358">8</tspan></text><path d="M2852.54 1702.01 2961.19 1702.01 2961.19 1773.51 2852.54 1773.51Z" fill="#A5A5A5" fill-rule="evenodd"/><path d="M2961.19 1702.01 3079.45 1702.01 3079.45 1773.51 2961.19 1773.51Z" fill="#A5A5A5" fill-rule="evenodd"/><path d="M3079.45 1702.01 3190.6 1702.01 3190.6 1773.51 3079.45 1773.51Z" fill="#A5A5A5" fill-rule="evenodd"/><path d="M2851.39 1773.51 3191.74 1773.51" stroke="#A5A5A5" stroke-width="2.29167" stroke-miterlimit="8" fill="none" fill-rule="evenodd"/><path d="M2851.39 1845.01 3191.74 1845.01" stroke="#A5A5A5" stroke-width="2.29167" stroke-miterlimit="8" fill="none" fill-rule="evenodd"/><path d="M2851.39 1916.51 3191.74 1916.51" stroke="#A5A5A5" stroke-width="2.29167" stroke-miterlimit="8" fill="none" fill-rule="evenodd"/><path d="M2852.54 1700.86 2852.54 1989.15" stroke="#A5A5A5" stroke-width="2.29167" stroke-miterlimit="8" fill="none" fill-rule="evenodd"/><path d="M3190.6 1700.86 3190.6 1989.15" stroke="#A5A5A5" stroke-width="2.29167" stroke-miterlimit="8" fill="none" fill-rule="evenodd"/><path d="M2851.39 1702.01 3191.74 1702.01" stroke="#A5A5A5" stroke-width="2.29167" stroke-miterlimit="8" fill="none" fill-rule="evenodd"/><path d="M2851.39 1988.01 3191.74 1988.01" stroke="#A5A5A5" stroke-width="2.29167" stroke-miterlimit="8" fill="none" fill-rule="evenodd"/><text fill="#FFFFFF" font-family="Calibri,Calibri_MSFontService,sans-serif" font-weight="400" font-size="32" transform="matrix(1 0 0 1 2876.21 1749)">start<tspan font-size="32" x="119.474" y="0">end</tspan><tspan font-size="32" x="234.462" y="0">size</tspan><tspan fill="#7F7F7F" font-size="32" x="22.6301" y="71">1</tspan><tspan fill="#7F7F7F" font-size="32" x="136.088" y="71">2</tspan><tspan fill="#7F7F7F" font-size="32" x="242.77" y="71">10</tspan><tspan fill="#7F7F7F" font-size="32" x="22.6301" y="143">3</tspan><tspan fill="#7F7F7F" font-size="32" x="136.088" y="143">3</tspan><tspan fill="#7F7F7F" font-size="32" x="242.77" y="143">10</tspan><tspan fill="#7F7F7F" font-size="32" x="22.6301" y="214">4</tspan><tspan fill="#7F7F7F" font-size="32" x="136.088" y="214">5</tspan><tspan fill="#7F7F7F" font-size="32" x="242.77" y="214">10</tspan></text><g clip-path="url(#clip4)"><g clip-path="url(#clip5)"><g clip-path="url(#clip6)"><path d="M3273.44 1188.08 3273.44 1238.92 3311.56 1238.92 3311.56 1201.8 3297.85 1188.08ZM3298.23 1190.26 3309.38 1201.42C3309.38 1201.42 3309.38 1201.42 3309.38 1201.43 3309.38 1201.43 3309.38 1201.43 3309.38 1201.43L3298.22 1201.43 3298.22 1190.27C3298.22 1190.26 3298.22 1190.26 3298.23 1190.26 3298.23 1190.26 3298.23 1190.26 3298.23 1190.26ZM3274.71 1237.65 3274.71 1189.35 3296.95 1189.35 3296.95 1202.7 3310.29 1202.7 3310.29 1237.65Z" fill="#7F7F7F"/></g></g></g><text fill="#7F7F7F" font-family="Arial,Arial_MSFontService,sans-serif" font-weight="400" font-size="28" transform="matrix(1 0 0 1 3284.92 1224)">B</text><g clip-path="url(#clip7)"><g clip-path="url(#clip8)"><g clip-path="url(#clip9)"><path d="M11.4375 5.08332 11.4375 55.9165 49.5624 55.9165 49.5624 18.7994 35.8463 5.08332ZM36.2295 7.26343 47.3823 18.4162C47.3847 18.4187 47.3847 18.4228 47.3822 18.4252 47.381 18.4263 47.3795 18.427 47.3778 18.427L36.2187 18.427 36.2187 7.26788C36.2187 7.26438 36.2216 7.26159 36.2251 7.26159 36.2267 7.26165 36.2283 7.26228 36.2295 7.26343ZM12.7083 54.6457 12.7083 6.35415 34.9478 6.35415 34.9478 19.6979 48.2915 19.6979 48.2915 54.6457Z" fill="#7F7F7F" transform="matrix(1.00001 0 0 1 3262 1254)"/></g></g></g><text fill="#7F7F7F" font-family="Arial,Arial_MSFontService,sans-serif" font-weight="400" font-size="28" transform="matrix(1 0 0 1 3284.92 1295)">C</text><g clip-path="url(#clip10)"><g clip-path="url(#clip11)"><g clip-path="url(#clip12)"><path d="M11.4375 5.08332 11.4375 55.9165 49.5624 55.9165 49.5624 18.7994 35.8463 5.08332ZM36.2295 7.26343 47.3823 18.4162C47.3847 18.4187 47.3847 18.4228 47.3822 18.4252 47.381 18.4263 47.3795 18.427 47.3778 18.427L36.2187 18.427 36.2187 7.26788C36.2187 7.26438 36.2216 7.26159 36.2251 7.26159 36.2267 7.26165 36.2283 7.26228 36.2295 7.26343ZM12.7083 54.6457 12.7083 6.35415 34.9478 6.35415 34.9478 19.6979 48.2915 19.6979 48.2915 54.6457Z" fill="#7F7F7F" transform="matrix(1.00001 0 0 1 3262 1325)"/></g></g></g><text fill="#7F7F7F" font-family="Arial,Arial_MSFontService,sans-serif" font-weight="400" font-size="28" transform="matrix(1 0 0 1 3284.92 1366)">D</text><g clip-path="url(#clip13)"><g clip-path="url(#clip14)"><g clip-path="url(#clip15)"><path d="M3273.44 1401.08 3273.44 1451.92 3311.56 1451.92 3311.56 1414.8 3297.85 1401.08ZM3298.23 1403.26 3309.38 1414.42C3309.38 1414.42 3309.38 1414.42 3309.38 1414.43 3309.38 1414.43 3309.38 1414.43 3309.38 1414.43L3298.22 1414.43 3298.22 1403.27C3298.22 1403.26 3298.22 1403.26 3298.23 1403.26 3298.23 1403.26 3298.23 1403.26 3298.23 1403.26ZM3274.71 1450.65 3274.71 1402.35 3296.95 1402.35 3296.95 1415.7 3310.29 1415.7 3310.29 1450.65Z" fill="#7F7F7F"/></g></g></g><text fill="#7F7F7F" font-family="Arial,Arial_MSFontService,sans-serif" font-weight="400" font-size="28" transform="matrix(1 0 0 1 3284.92 1436)">E</text><path d="M3204 1147 3242.22 1147" stroke="#548235" stroke-width="2.29167" stroke-miterlimit="8" stroke-dasharray="9.16667 6.875" fill="none" fill-rule="evenodd"/><path d="M3204 1217 3242.22 1217" stroke="#548235" stroke-width="2.29167" stroke-miterlimit="8" stroke-dasharray="9.16667 6.875" fill="none" fill-rule="evenodd"/><path d="M3204 1288 3242.22 1288" stroke="#548235" stroke-width="2.29167" stroke-miterlimit="8" stroke-dasharray="9.16667 6.875" fill="none" fill-rule="evenodd"/><path d="M3204 1359 3242.22 1359" stroke="#548235" stroke-width="2.29167" stroke-miterlimit="8" stroke-dasharray="9.16667 6.875" fill="none" fill-rule="evenodd"/><path d="M3204 1430 3242.22 1430" stroke="#548235" stroke-width="2.29167" stroke-miterlimit="8" stroke-dasharray="9.16667 6.875" fill="none" fill-rule="evenodd"/><path d="M3261 1110.17C3261 1104.55 3265.55 1100 3271.17 1100L3311.85 1100C3317.47 1100 3322.02 1104.55 3322.02 1110.17L3322.02 1456.83C3322.02 1462.45 3317.47 1467 3311.85 1467L3271.17 1467C3265.55 1467 3261 1462.45 3261 1456.83Z" stroke="#A6A6A6" stroke-width="2.29167" stroke-miterlimit="8" fill="none" fill-rule="evenodd"/><g clip-path="url(#clip16)"><g clip-path="url(#clip17)"><g clip-path="url(#clip18)"><path d="M2963.68 1660.45 2963.68 1577.32C2963.68 1569.22 2942.98 1564.85 2923.5 1564.85 2904.02 1564.85 2883.32 1569.22 2883.32 1577.32L2883.32 1660.45C2883.32 1668.55 2904.02 1672.92 2923.5 1672.92 2942.98 1672.92 2963.68 1668.55 2963.68 1660.45ZM2923.5 1567.62C2944.91 1567.62 2960.91 1572.75 2960.91 1577.32 2960.91 1581.89 2944.91 1587.02 2923.5 1587.02 2902.09 1587.02 2886.09 1581.89 2886.09 1577.32 2886.09 1572.75 2902.09 1567.62 2923.5 1567.62ZM2886.09 1582.12C2892.37 1587.13 2908.31 1589.79 2923.5 1589.79 2938.69 1589.79 2954.63 1587.13 2960.91 1582.12L2960.91 1605.03C2960.91 1609.6 2944.91 1614.73 2923.5 1614.73 2902.09 1614.73 2886.09 1609.6 2886.09 1605.03ZM2886.09 1609.82C2892.37 1614.84 2908.31 1617.5 2923.5 1617.5 2938.69 1617.5 2954.63 1614.84 2960.91 1609.82L2960.91 1632.74C2960.91 1637.31 2944.91 1642.44 2923.5 1642.44 2902.09 1642.44 2886.09 1637.31 2886.09 1632.74ZM2886.09 1660.45 2886.09 1637.53C2892.37 1642.55 2908.31 1645.21 2923.5 1645.21 2938.69 1645.21 2954.63 1642.55 2960.91 1637.53L2960.91 1660.45C2960.91 1665.02 2944.91 1670.15 2923.5 1670.15 2902.09 1670.15 2886.09 1665.02 2886.09 1660.45Z" fill="#7F7F7F"/><path d="M2953.98 1600.88C2953.98 1602.41 2952.74 1603.65 2951.21 1603.65 2949.68 1603.65 2948.44 1602.41 2948.44 1600.88 2948.44 1599.34 2949.68 1598.1 2951.21 1598.1 2952.74 1598.1 2953.98 1599.34 2953.98 1600.88Z" fill="#7F7F7F"/><path d="M2953.98 1628.58C2953.98 1630.11 2952.74 1631.35 2951.21 1631.35 2949.68 1631.35 2948.44 1630.11 2948.44 1628.58 2948.44 1627.05 2949.68 1625.81 2951.21 1625.81 2952.74 1625.81 2953.98 1627.05 2953.98 1628.58Z" fill="#7F7F7F"/><path d="M2953.98 1656.29C2953.98 1657.82 2952.74 1659.06 2951.21 1659.06 2949.68 1659.06 2948.44 1657.82 2948.44 1656.29 2948.44 1654.76 2949.68 1653.52 2951.21 1653.52 2952.74 1653.52 2953.98 1654.76 2953.98 1656.29Z" fill="#7F7F7F"/></g></g></g><text fill="#7F7F7F" font-family="Calibri,Calibri_MSFontService,sans-serif" font-weight="400" font-size="48" transform="matrix(1 0 0 1 2974.95 1603)">inventory<tspan font-size="48" x="0" y="58">table</tspan></text><g clip-path="url(#clip19)"><g clip-path="url(#clip20)"><g clip-path="url(#clip21)"><path d="M2961.68 996.448 2961.68 913.323C2961.68 905.224 2940.98 900.854 2921.5 900.854 2902.02 900.854 2881.32 905.224 2881.32 913.323L2881.32 996.448C2881.32 1004.55 2902.02 1008.92 2921.5 1008.92 2940.98 1008.92 2961.68 1004.55 2961.68 996.448ZM2921.5 903.625C2942.91 903.625 2958.91 908.751 2958.91 913.323 2958.91 917.895 2942.91 923.021 2921.5 923.021 2900.09 923.021 2884.09 917.895 2884.09 913.323 2884.09 908.751 2900.09 903.625 2921.5 903.625ZM2884.09 918.116C2890.37 923.132 2906.31 925.792 2921.5 925.792 2936.69 925.792 2952.63 923.132 2958.91 918.116L2958.91 941.031C2958.91 945.603 2942.91 950.729 2921.5 950.729 2900.09 950.729 2884.09 945.603 2884.09 941.031ZM2884.09 945.825C2890.37 950.84 2906.31 953.5 2921.5 953.5 2936.69 953.5 2952.63 950.84 2958.91 945.825L2958.91 968.74C2958.91 973.311 2942.91 978.437 2921.5 978.437 2900.09 978.437 2884.09 973.311 2884.09 968.74ZM2884.09 996.448 2884.09 973.533C2890.37 978.548 2906.31 981.208 2921.5 981.208 2936.69 981.208 2952.63 978.548 2958.91 973.533L2958.91 996.448C2958.91 1001.02 2942.91 1006.15 2921.5 1006.15 2900.09 1006.15 2884.09 1001.02 2884.09 996.448Z" fill="#7F7F7F"/><path d="M2951.98 936.875C2951.98 938.405 2950.74 939.646 2949.21 939.646 2947.68 939.646 2946.44 938.405 2946.44 936.875 2946.44 935.345 2947.68 934.104 2949.21 934.104 2950.74 934.104 2951.98 935.345 2951.98 936.875Z" fill="#7F7F7F"/><path d="M2951.98 964.583C2951.98 966.114 2950.74 967.354 2949.21 967.354 2947.68 967.354 2946.44 966.114 2946.44 964.583 2946.44 963.053 2947.68 961.812 2949.21 961.812 2950.74 961.812 2951.98 963.053 2951.98 964.583Z" fill="#7F7F7F"/><path d="M2951.98 992.292C2951.98 993.822 2950.74 995.062 2949.21 995.062 2947.68 995.062 2946.44 993.822 2946.44 992.292 2946.44 990.761 2947.68 989.521 2949.21 989.521 2950.74 989.521 2951.98 990.761 2951.98 992.292Z" fill="#7F7F7F"/></g></g></g><text fill="#7F7F7F" font-family="Calibri,Calibri_MSFontService,sans-serif" font-weight="400" font-size="48" transform="matrix(1 0 0 1 2975.41 939)">meta<tspan font-size="48" x="0" y="58">table</tspan><tspan font-size="48" x="-1970.07" y="397">processing</tspan><tspan font-size="48" x="-1970.07" y="455">application</tspan></text><g clip-path="url(#clip22)"><g clip-path="url(#clip23)"><g clip-path="url(#clip24)"><path d="M1365.02 1452.6 1365.02 1531.8 1388.51 1531.8 1388.52 1452.73ZM1366.76 1530.06 1366.76 1454.35 1386.77 1454.46 1386.77 1463.06 1375.46 1463.06 1375.47 1464.8 1386.77 1464.8 1386.77 1472.63 1379.81 1472.63 1379.81 1474.37 1386.78 1474.37 1386.77 1482.2 1375.47 1482.2 1375.47 1483.94 1386.77 1483.94 1386.77 1491.77 1379.82 1491.77 1379.82 1493.51 1386.77 1493.51 1386.77 1501.34 1375.46 1501.34 1375.46 1503.08 1386.77 1503.08 1386.77 1510.91 1379.82 1510.91 1379.82 1512.65 1386.77 1512.65 1386.77 1520.49 1375.46 1520.49 1375.46 1522.23 1386.77 1522.23 1386.77 1530.06Z" fill="#7F7F7F"/></g></g></g><text fill="#7F7F7F" font-family="Calibri,Calibri_MSFontService,sans-serif" font-weight="400" font-size="46" transform="matrix(1 0 0 1 1413.1 1508)">10</text><path d="M1808.5 1140C1786.46 1140.03 1766.51 1153.08 1757.65 1173.26 1757.65 1173.27 1757.65 1173.27 1757.64 1173.27 1757.63 1173.27 1757.63 1173.27 1757.63 1173.26L1757.63 1149.25 1754.54 1149.25 1754.54 1178.54 1783.83 1178.54 1783.83 1175.46 1760.11 1175.46C1760.1 1175.46 1760.1 1175.45 1760.1 1175.44 1760.1 1175.44 1760.1 1175.44 1760.1 1175.44 1771.21 1148.73 1801.86 1136.08 1828.57 1147.19 1855.28 1158.3 1867.92 1188.96 1856.81 1215.66 1845.71 1242.37 1815.05 1255.02 1788.34 1243.91 1768.79 1235.78 1756.06 1216.67 1756.08 1195.5L1753 1195.5C1753 1226.15 1777.85 1251 1808.5 1251 1839.15 1251 1864 1226.15 1864 1195.5 1864 1164.85 1839.15 1140 1808.5 1140Z" fill="#7F7F7F" fill-rule="evenodd"/><path d="M1802.89 1179.46 1804.42 1179.46 1798.84 1205.84C1798.27 1208.56 1797.49 1210.75 1796.5 1212.4 1795.52 1214.06 1794.24 1215.3 1792.66 1216.14 1791.09 1216.97 1789.21 1217.38 1787.02 1217.38 1786.13 1217.38 1785.37 1217.29 1784.74 1217.12L1785.36 1214.75C1785.73 1214.9 1786.41 1214.97 1787.4 1214.97 1788.26 1214.97 1788.99 1214.84 1789.59 1214.58 1790.19 1214.32 1790.75 1213.89 1791.26 1213.29 1791.78 1212.69 1792.26 1211.85 1792.7 1210.78 1793.14 1209.7 1793.55 1208.32 1793.92 1206.61L1798.27 1187.28C1798.69 1185.45 1798.89 1184.11 1798.89 1183.25 1798.89 1182.45 1798.7 1181.9 1798.31 1181.61 1797.93 1181.33 1797.17 1181.16 1796.05 1181.13L1796.34 1179.71ZM1802.17 1169.18 1806.92 1169.18 1805.69 1174.39 1800.93 1174.39Z" fill="#7F7F7F" fill-rule="evenodd"/><text fill="#000000" fill-opacity="0" font-family="Arial,Arial_MSFontService,sans-serif" font-size="48.2056" x="1784.74" y="1211.36">ğ‘—</text><path d="M1819.11 1191.45 1820.3 1191.45C1820.27 1192.17 1820.25 1192.81 1820.24 1193.38 1820.23 1193.94 1820.22 1194.49 1820.21 1195.03 1820.21 1195.56 1820.2 1196.09 1820.2 1196.61L1820.2 1211.45C1820.2 1211.86 1820.22 1212.2 1820.24 1212.5 1820.27 1212.79 1820.31 1213.04 1820.37 1213.24 1820.43 1213.44 1820.51 1213.61 1820.6 1213.76 1820.7 1213.9 1820.81 1214.02 1820.94 1214.13 1821.1 1214.28 1821.31 1214.41 1821.57 1214.49 1821.83 1214.57 1822.16 1214.65 1822.57 1214.7 1822.97 1214.76 1823.45 1214.81 1824.02 1214.84 1824.59 1214.87 1825.27 1214.9 1826.06 1214.91L1826.06 1216.61 1810.57 1216.61 1810.57 1214.91C1811.34 1214.88 1811.99 1214.85 1812.53 1214.82 1813.06 1214.79 1813.52 1214.74 1813.89 1214.68 1814.27 1214.63 1814.57 1214.56 1814.8 1214.49 1815.03 1214.42 1815.23 1214.33 1815.4 1214.23 1815.58 1214.11 1815.74 1213.98 1815.87 1213.85 1816 1213.71 1816.1 1213.54 1816.18 1213.33 1816.26 1213.12 1816.32 1212.87 1816.36 1212.57 1816.41 1212.27 1816.43 1211.9 1816.43 1211.45L1816.43 1197.45C1816.43 1196.94 1816.34 1196.58 1816.14 1196.37 1815.94 1196.17 1815.67 1196.06 1815.3 1196.06 1814.9 1196.06 1814.3 1196.27 1813.5 1196.69 1812.71 1197.1 1811.68 1197.72 1810.42 1198.54 1810.25 1198.24 1810.09 1197.94 1809.95 1197.64 1809.81 1197.34 1809.66 1197.04 1809.5 1196.73 1811.11 1195.84 1812.71 1194.96 1814.29 1194.08 1815.88 1193.2 1817.48 1192.32 1819.11 1191.45Z" fill="#7F7F7F" fill-rule="evenodd"/><text fill="#000000" fill-opacity="0" font-family="Arial,Arial_MSFontService,sans-serif" font-size="25.1562" x="1809.5" y="1213.46">1</text><path d="M1338.5 1454.39C1338.5 1445.06 1346.06 1437.5 1355.39 1437.5L1465.61 1437.5C1474.94 1437.5 1482.5 1445.06 1482.5 1454.39L1482.5 1608.61C1482.5 1617.94 1474.94 1625.5 1465.61 1625.5L1355.39 1625.5C1346.06 1625.5 1338.5 1617.94 1338.5 1608.61Z" stroke="#A6A6A6" stroke-width="3.4375" stroke-miterlimit="8" fill="none" fill-rule="evenodd"/><g clip-path="url(#clip25)"><g clip-path="url(#clip26)"><g clip-path="url(#clip27)"><path d="M72.6562 152.344 152.344 152.344 152.344 72.6562 72.6562 72.6562ZM77.3437 77.3437 147.656 77.3437 147.656 147.656 77.3437 147.656Z" fill="#7F7F7F" transform="matrix(1 0 0 1 1002 1416)"/><path d="M196.875 67.9687 196.875 63.2812 175.781 63.2812 175.781 60.9374C175.773 54.4685 170.531 49.2264 164.062 49.2187L161.719 49.2187 161.719 28.125 157.031 28.125 157.031 49.2187 142.969 49.2187 142.969 28.125 138.281 28.125 138.281 49.2187 124.219 49.2187 124.219 28.125 119.531 28.125 119.531 49.2187 105.469 49.2187 105.469 28.125 100.781 28.125 100.781 49.2187 86.7187 49.2187 86.7187 28.125 82.0312 28.125 82.0312 49.2187 67.9687 49.2187 67.9687 28.125 63.2812 28.125 63.2812 49.2187 60.9374 49.2187C54.4685 49.2264 49.2264 54.4685 49.2187 60.9374L49.2187 63.2812 28.125 63.2812 28.125 67.9687 49.2187 67.9687 49.2187 82.0312 28.125 82.0312 28.125 86.7187 49.2187 86.7187 49.2187 100.781 28.125 100.781 28.125 105.469 49.2187 105.469 49.2187 119.531 28.125 119.531 28.125 124.219 49.2187 124.219 49.2187 138.281 28.125 138.281 28.125 142.969 49.2187 142.969 49.2187 157.031 28.125 157.031 28.125 161.719 49.2187 161.719 49.2187 164.062C49.2264 170.531 54.4685 175.773 60.9374 175.781L63.2812 175.781 63.2812 196.875 67.9687 196.875 67.9687 175.781 82.0312 175.781 82.0312 196.875 86.7187 196.875 86.7187 175.781 100.781 175.781 100.781 196.875 105.469 196.875 105.469 175.781 119.531 175.781 119.531 196.875 124.219 196.875 124.219 175.781 138.281 175.781 138.281 196.875 142.969 196.875 142.969 175.781 157.031 175.781 157.031 196.875 161.719 196.875 161.719 175.781 164.062 175.781C170.531 175.773 175.773 170.531 175.781 164.062L175.781 161.719 196.875 161.719 196.875 157.031 175.781 157.031 175.781 142.969 196.875 142.969 196.875 138.281 175.781 138.281 175.781 124.219 196.875 124.219 196.875 119.531 175.781 119.531 175.781 105.469 196.875 105.469 196.875 100.781 175.781 100.781 175.781 86.7187 196.875 86.7187 196.875 82.0312 175.781 82.0312 175.781 67.9687ZM171.094 164.062C171.094 167.946 167.946 171.094 164.062 171.094L60.9374 171.094C57.0541 171.094 53.9062 167.946 53.9062 164.062L53.9062 60.9374C53.9062 57.0541 57.0541 53.9062 60.9374 53.9062L164.062 53.9062C167.946 53.9062 171.094 57.0541 171.094 60.9374Z" fill="#7F7F7F" transform="matrix(1 0 0 1 1002 1416)"/></g></g></g><text fill="#7F7F7F" font-family="Calibri,Calibri_MSFontService,sans-serif" font-weight="400" font-size="48" transform="matrix(1 0 0 1 1770.78 1116)">jobs</text><path d="M1803.5 1473C1781.46 1473.03 1761.51 1486.08 1752.65 1506.26 1752.65 1506.27 1752.65 1506.27 1752.64 1506.27 1752.63 1506.27 1752.62 1506.27 1752.62 1506.26L1752.62 1482.25 1749.54 1482.25 1749.54 1511.54 1778.83 1511.54 1778.83 1508.46 1755.11 1508.46C1755.1 1508.46 1755.1 1508.45 1755.1 1508.44 1755.1 1508.44 1755.1 1508.44 1755.1 1508.44 1766.21 1481.73 1796.86 1469.08 1823.57 1480.19 1850.28 1491.3 1862.92 1521.96 1851.81 1548.66 1840.71 1575.37 1810.05 1588.02 1783.34 1576.91 1763.79 1568.78 1751.06 1549.67 1751.08 1528.5L1748 1528.5C1748 1559.15 1772.85 1584 1803.5 1584 1834.15 1584 1859 1559.15 1859 1528.5 1859 1497.85 1834.15 1473 1803.5 1473Z" fill="#7F7F7F" fill-rule="evenodd"/><path d="M1796.89 1512.44 1798.42 1512.44 1792.84 1538.81C1792.27 1541.53 1791.49 1543.72 1790.5 1545.38 1789.52 1547.03 1788.24 1548.28 1786.66 1549.11 1785.09 1549.94 1783.21 1550.36 1781.02 1550.36 1780.13 1550.36 1779.37 1550.27 1778.74 1550.09L1779.36 1547.73C1779.73 1547.87 1780.41 1547.94 1781.4 1547.94 1782.26 1547.94 1782.99 1547.81 1783.59 1547.55 1784.19 1547.29 1784.75 1546.86 1785.27 1546.26 1785.78 1545.66 1786.26 1544.83 1786.7 1543.75 1787.14 1542.68 1787.55 1541.29 1787.92 1539.59L1792.27 1520.25C1792.69 1518.43 1792.89 1517.08 1792.89 1516.22 1792.89 1515.42 1792.7 1514.87 1792.31 1514.59 1791.93 1514.3 1791.17 1514.14 1790.05 1514.1L1790.34 1512.68ZM1796.17 1502.15 1800.92 1502.15 1799.69 1507.36 1794.93 1507.36Z" fill="#7F7F7F" fill-rule="evenodd"/><text fill="#000000" fill-opacity="0" font-family="Arial,Arial_MSFontService,sans-serif" font-size="48.2056" x="1778.74" y="1544.33">ğ‘—</text><path d="M1812.87 1524.29C1814.22 1524.29 1815.38 1524.44 1816.34 1524.75 1817.29 1525.05 1818.07 1525.47 1818.67 1525.99 1819.27 1526.51 1819.7 1527.13 1819.97 1527.86 1820.24 1528.59 1820.37 1529.38 1820.37 1530.23 1820.37 1530.73 1820.33 1531.21 1820.26 1531.64 1820.19 1532.08 1820.07 1532.51 1819.89 1532.93 1819.72 1533.36 1819.48 1533.78 1819.2 1534.21 1818.91 1534.64 1818.55 1535.1 1818.12 1535.58 1817.8 1536 1817.37 1536.48 1816.85 1537.02 1816.33 1537.57 1815.76 1538.16 1815.14 1538.78 1814.53 1539.41 1813.88 1540.06 1813.2 1540.73 1812.52 1541.41 1811.87 1542.08 1811.23 1542.75 1810.59 1543.41 1810 1544.06 1809.47 1544.68 1808.94 1545.31 1808.5 1545.88 1808.16 1546.4L1815.39 1546.4C1816 1546.4 1816.49 1546.38 1816.85 1546.33 1817.22 1546.29 1817.52 1546.18 1817.76 1546.03 1818 1545.87 1818.21 1545.63 1818.38 1545.31 1818.55 1545 1818.74 1544.56 1818.96 1544L1820.78 1544C1820.71 1544.92 1820.65 1545.85 1820.59 1546.79 1820.54 1547.73 1820.47 1548.66 1820.41 1549.58L1803.87 1549.58 1803.87 1548.57C1804.18 1547.86 1804.54 1547.17 1804.96 1546.49 1805.38 1545.8 1805.84 1545.11 1806.37 1544.41 1806.89 1543.7 1807.48 1542.98 1808.14 1542.23 1808.81 1541.48 1809.54 1540.7 1810.35 1539.9 1811.57 1538.67 1812.57 1537.63 1813.34 1536.76 1814.11 1535.89 1814.71 1535.12 1815.15 1534.45 1815.6 1533.77 1815.9 1533.14 1816.06 1532.57 1816.23 1532 1816.31 1531.39 1816.31 1530.73 1816.31 1530.07 1816.21 1529.46 1816.02 1528.9 1815.83 1528.34 1815.56 1527.86 1815.21 1527.47 1814.86 1527.08 1814.42 1526.78 1813.88 1526.56 1813.33 1526.33 1812.71 1526.22 1812.01 1526.22 1810.8 1526.22 1809.78 1526.55 1808.96 1527.21 1808.14 1527.87 1807.5 1528.82 1807.05 1530.07L1804.49 1530.07 1804.49 1526.26C1806.16 1525.57 1807.69 1525.07 1809.09 1524.76 1810.49 1524.45 1811.75 1524.29 1812.87 1524.29Z" fill="#7F7F7F" fill-rule="evenodd"/><text fill="#000000" fill-opacity="0" font-family="Arial,Arial_MSFontService,sans-serif" font-size="25.293" x="1803.87" y="1546.42">2</text><path d="M1808.5 1804C1786.46 1804.03 1766.51 1817.08 1757.65 1837.26 1757.65 1837.27 1757.65 1837.27 1757.64 1837.27 1757.63 1837.27 1757.63 1837.27 1757.63 1837.26L1757.63 1813.25 1754.54 1813.25 1754.54 1842.54 1783.83 1842.54 1783.83 1839.46 1760.11 1839.46C1760.1 1839.46 1760.1 1839.45 1760.1 1839.44 1760.1 1839.44 1760.1 1839.44 1760.1 1839.44 1771.21 1812.73 1801.86 1800.08 1828.57 1811.19 1855.28 1822.3 1867.92 1852.96 1856.81 1879.66 1845.71 1906.37 1815.05 1919.02 1788.34 1907.91 1768.79 1899.78 1756.06 1880.67 1756.08 1859.5L1753 1859.5C1753 1890.15 1777.85 1915 1808.5 1915 1839.15 1915 1864 1890.15 1864 1859.5 1864 1828.85 1839.15 1804 1808.5 1804Z" fill="#7F7F7F" fill-rule="evenodd"/><path d="M1802.25 1843.12 1803.78 1843.12 1798.2 1869.49C1797.62 1872.21 1796.84 1874.4 1795.86 1876.06 1794.88 1877.71 1793.6 1878.96 1792.02 1879.79 1790.44 1880.62 1788.56 1881.04 1786.38 1881.04 1785.48 1881.04 1784.72 1880.95 1784.1 1880.77L1784.71 1878.41C1785.09 1878.55 1785.77 1878.62 1786.76 1878.62 1787.62 1878.62 1788.34 1878.49 1788.94 1878.23 1789.54 1877.97 1790.1 1877.54 1790.62 1876.94 1791.14 1876.34 1791.62 1875.51 1792.06 1874.43 1792.5 1873.36 1792.91 1871.97 1793.28 1870.27L1797.63 1850.94C1798.04 1849.11 1798.25 1847.77 1798.25 1846.91 1798.25 1846.1 1798.06 1845.56 1797.67 1845.27 1797.29 1844.98 1796.53 1844.82 1795.4 1844.79L1795.7 1843.36ZM1801.53 1832.83 1806.28 1832.83 1805.04 1838.04 1800.29 1838.04Z" fill="#7F7F7F" fill-rule="evenodd"/><text fill="#000000" fill-opacity="0" font-family="Arial,Arial_MSFontService,sans-serif" font-size="48.2056" x="1784.1" y="1875.01">ğ‘—</text><path d="M1818.19 1854.97C1819.23 1854.97 1820.2 1855.08 1821.11 1855.3 1822.01 1855.53 1822.8 1855.86 1823.46 1856.31 1824.13 1856.76 1824.64 1857.32 1825.01 1857.99 1825.39 1858.66 1825.57 1859.44 1825.57 1860.32 1825.57 1861.16 1825.45 1861.89 1825.22 1862.53 1824.99 1863.17 1824.62 1863.75 1824.14 1864.27 1823.65 1864.79 1823.05 1865.26 1822.34 1865.68 1821.63 1866.11 1820.81 1866.51 1819.89 1866.91L1819.89 1867.14C1820.76 1867.3 1821.57 1867.55 1822.33 1867.89 1823.08 1868.24 1823.74 1868.67 1824.31 1869.2 1824.88 1869.73 1825.32 1870.34 1825.65 1871.03 1825.97 1871.72 1826.14 1872.48 1826.14 1873.31 1826.14 1874.35 1825.94 1875.32 1825.55 1876.21 1825.16 1877.1 1824.57 1877.88 1823.79 1878.53 1823.01 1879.18 1822.05 1879.69 1820.9 1880.05 1819.76 1880.41 1818.42 1880.6 1816.88 1880.6 1815.67 1880.6 1814.44 1880.48 1813.19 1880.24 1811.94 1879.99 1810.75 1879.68 1809.63 1879.29L1809.63 1875.07 1812.15 1875.07C1812.36 1875.72 1812.61 1876.28 1812.9 1876.74 1813.18 1877.2 1813.52 1877.58 1813.9 1877.87 1814.29 1878.17 1814.73 1878.38 1815.23 1878.51 1815.73 1878.64 1816.3 1878.7 1816.94 1878.7 1818.62 1878.7 1819.89 1878.3 1820.76 1877.5 1821.62 1876.7 1822.06 1875.49 1822.06 1873.86 1822.06 1872.13 1821.49 1870.82 1820.35 1869.92 1819.21 1869.03 1817.52 1868.59 1815.28 1868.59L1813.56 1868.59 1813.56 1866.71C1814.93 1866.65 1816.11 1866.45 1817.1 1866.13 1818.1 1865.82 1818.93 1865.4 1819.59 1864.89 1820.26 1864.39 1820.75 1863.79 1821.08 1863.12 1821.4 1862.44 1821.57 1861.72 1821.57 1860.95 1821.57 1859.7 1821.2 1858.71 1820.45 1857.99 1819.71 1857.27 1818.64 1856.91 1817.23 1856.91 1816.05 1856.91 1815.05 1857.23 1814.25 1857.88 1813.45 1858.53 1812.84 1859.5 1812.41 1860.79L1809.93 1860.79 1809.93 1856.94C1811.46 1856.29 1812.91 1855.8 1814.27 1855.47 1815.63 1855.14 1816.94 1854.97 1818.19 1854.97Z" fill="#7F7F7F" fill-rule="evenodd"/><text fill="#000000" fill-opacity="0" font-family="Arial,Arial_MSFontService,sans-serif" font-size="25.625" x="1809.63" y="1877.39">3</text><text fill="#7F7F7F" font-family="Calibri,Calibri_MSFontService,sans-serif" font-weight="400" font-size="48" transform="matrix(1 0 0 1 1355.06 1336)">batch<tspan font-size="48" x="-4.8584" y="58">config</tspan></text><path d="M1448.75 1568.87C1447.63 1568.87 1446.59 1569.12 1445.63 1569.62 1444.67 1570.12 1443.78 1570.81 1442.96 1571.69 1442.14 1572.58 1441.37 1573.64 1440.68 1574.87 1439.98 1576.1 1439.32 1577.44 1438.69 1578.9 1439.17 1579.96 1439.72 1580.99 1440.35 1581.99 1440.97 1582.99 1441.69 1583.88 1442.49 1584.66 1443.29 1585.44 1444.19 1586.07 1445.19 1586.54 1446.19 1587.01 1447.31 1587.24 1448.54 1587.24 1449.72 1587.24 1450.79 1586.99 1451.72 1586.48 1452.66 1585.97 1453.46 1585.26 1454.11 1584.35 1454.77 1583.44 1455.27 1582.38 1455.61 1581.15 1455.96 1579.92 1456.13 1578.58 1456.13 1577.12 1456.13 1575.97 1455.98 1574.89 1455.69 1573.88 1455.4 1572.87 1454.95 1572 1454.35 1571.26 1453.74 1570.52 1452.98 1569.93 1452.05 1569.51 1451.12 1569.08 1450.03 1568.87 1448.75 1568.87ZM1424.82 1567.96C1423.78 1567.96 1422.77 1568.14 1421.8 1568.51 1420.83 1568.87 1419.98 1569.43 1419.24 1570.18 1418.5 1570.93 1417.91 1571.88 1417.47 1573.04 1417.04 1574.19 1416.82 1575.55 1416.82 1577.12 1416.82 1578.43 1416.98 1579.65 1417.3 1580.77 1417.62 1581.9 1418.11 1582.87 1418.77 1583.69 1419.43 1584.52 1420.24 1585.16 1421.21 1585.63 1422.18 1586.1 1423.32 1586.34 1424.63 1586.34 1425.71 1586.34 1426.69 1586.1 1427.55 1585.63 1428.42 1585.16 1429.24 1584.49 1430.02 1583.6 1430.8 1582.72 1431.57 1581.63 1432.32 1580.34 1433.07 1579.04 1433.88 1577.56 1434.75 1575.9 1433.53 1573.09 1432.06 1571.06 1430.36 1569.82 1428.67 1568.58 1426.82 1567.96 1424.82 1567.96ZM1424.44 1564.77C1425.78 1564.77 1427.01 1564.99 1428.15 1565.41 1429.28 1565.84 1430.33 1566.44 1431.29 1567.21 1432.24 1567.98 1433.12 1568.9 1433.91 1569.98 1434.7 1571.05 1435.43 1572.23 1436.1 1573.52 1436.97 1571.77 1437.91 1570.33 1438.91 1569.19 1439.91 1568.06 1440.95 1567.16 1442.04 1566.51 1443.12 1565.85 1444.24 1565.4 1445.4 1565.15 1446.55 1564.9 1447.72 1564.77 1448.91 1564.77 1450.62 1564.77 1452.17 1565.11 1453.55 1565.77 1454.94 1566.44 1456.11 1567.35 1457.08 1568.51 1458.05 1569.66 1458.8 1571.01 1459.32 1572.54 1459.84 1574.07 1460.1 1575.69 1460.1 1577.4 1460.1 1579.25 1459.83 1580.97 1459.29 1582.55 1458.74 1584.14 1457.97 1585.51 1456.97 1586.68 1455.97 1587.85 1454.75 1588.76 1453.32 1589.43 1451.88 1590.1 1450.27 1590.43 1448.47 1590.43 1447.14 1590.43 1445.93 1590.18 1444.83 1589.69 1443.74 1589.21 1442.74 1588.55 1441.83 1587.73 1440.93 1586.9 1440.1 1585.93 1439.35 1584.82 1438.6 1583.71 1437.91 1582.52 1437.29 1581.27 1436.45 1582.94 1435.56 1584.35 1434.6 1585.49 1433.64 1586.64 1432.65 1587.58 1431.61 1588.3 1430.58 1589.03 1429.53 1589.56 1428.44 1589.88 1427.36 1590.21 1426.28 1590.37 1425.19 1590.37 1423.09 1590.37 1421.27 1590.01 1419.72 1589.29 1418.18 1588.57 1416.9 1587.61 1415.88 1586.41 1414.86 1585.22 1414.1 1583.84 1413.6 1582.27 1413.1 1580.71 1412.85 1579.09 1412.85 1577.4 1412.85 1575.59 1413.12 1573.91 1413.66 1572.37 1414.2 1570.83 1414.97 1569.49 1415.97 1568.37 1416.97 1567.24 1418.19 1566.36 1419.61 1565.73 1421.04 1565.09 1422.65 1564.77 1424.44 1564.77Z" fill="#7F7F7F" fill-rule="evenodd"/><text fill="#000000" fill-opacity="0" font-family="Arial,Arial_MSFontService,sans-serif" font-size="25.6562" x="1412.85" y="1587.22">âˆ</text><path d="M2450.5 1611.21 2649.45 1611.21 2649.45 1615.79 2450.5 1615.79ZM2644.87 1604.33 2663.2 1613.5 2644.87 1622.67Z" fill="#7F7F7F"/><g clip-path="url(#clip28)"><g clip-path="url(#clip29)"><g clip-path="url(#clip30)"><path d="M1393.53 1575.83C1393.53 1571.36 1391.84 1567.06 1388.8 1563.79L1388.81 1558.77 1386.97 1548.79C1386.76 1547.54 1385.68 1546.63 1384.41 1546.63L1367.08 1546.63C1365.82 1546.63 1364.74 1547.54 1364.53 1548.79L1362.69 1558.84 1362.69 1563.94C1360.57 1566.27 1359.11 1569.13 1358.46 1572.22L1356.78 1572.22C1356.06 1572.22 1355.47 1572.81 1355.47 1573.53L1355.47 1577.47C1355.47 1578.19 1356.06 1578.78 1356.78 1578.78L1358.34 1578.78C1358.91 1582.11 1360.42 1585.22 1362.69 1587.72L1362.69 1592.25 1364.53 1602.29C1364.74 1603.54 1365.82 1604.45 1367.08 1604.45L1384.34 1604.45C1385.61 1604.45 1386.69 1603.54 1386.9 1602.29L1388.74 1592.25 1388.75 1587.92C1391.82 1584.64 1393.53 1580.32 1393.53 1575.83ZM1365.82 1549C1365.93 1548.39 1366.46 1547.94 1367.08 1547.94L1384.41 1547.94C1385.03 1547.94 1385.56 1548.39 1385.67 1549L1385.67 1549.01 1385.67 1549.03 1387.49 1558.89 1387.49 1562.52C1380.76 1556.6 1370.67 1556.65 1364 1562.64L1364 1558.95ZM1358.09 1577.47 1356.78 1577.47 1356.78 1573.53 1358.09 1573.53ZM1375.81 1559.42C1384.87 1559.42 1392.22 1566.77 1392.22 1575.83 1392.22 1584.89 1384.87 1592.23 1375.81 1592.23 1366.75 1592.23 1359.41 1584.89 1359.41 1575.83 1359.42 1566.77 1366.76 1559.43 1375.81 1559.42ZM1385.61 1602.09C1385.49 1602.7 1384.96 1603.14 1384.34 1603.15L1367.08 1603.15C1366.45 1603.14 1365.92 1602.68 1365.82 1602.06L1364 1592.13 1364 1589.02C1370.65 1594.99 1380.71 1595.06 1387.44 1589.18L1387.43 1592.13Z" fill="#7F7F7F"/><path d="M1382.57 1583.18 1383.5 1582.25 1376.47 1575.23 1376.47 1565 1375.16 1565 1375.16 1575.5C1375.16 1575.67 1375.23 1575.84 1375.35 1575.96Z" fill="#7F7F7F"/></g></g></g><text fill="#7F7F7F" font-family="Calibri,Calibri_MSFontService,sans-serif" font-weight="400" font-size="48" transform="matrix(1 0 0 1 2006.38 1116)">batches</text><path d="M2247.5 1195.5 2247.5 1479.91" stroke="#7F7F7F" stroke-width="3.4375" stroke-miterlimit="8" fill="none" fill-rule="evenodd"/><path d="M2247.5 1576.5 2247.5 1860.91" stroke="#7F7F7F" stroke-width="3.4375" stroke-miterlimit="8" fill="none" fill-rule="evenodd"/><path d="M2247.51 1478.78 2368.83 1479.71 2368.81 1483.15 2247.49 1482.22ZM2364.31 1472.23 2391.74 1481.6 2364.17 1490.56Z" fill="#7F7F7F"/><path d="M2247.51 1574.78 2368.83 1575.71 2368.81 1579.15 2247.49 1578.22ZM2364.31 1568.23 2391.74 1577.6 2364.17 1586.56Z" fill="#7F7F7F"/><path d="M1668.5 1577.5 1668.5 1861.91" stroke="#7F7F7F" stroke-width="3.4375" stroke-miterlimit="8" fill="none" fill-rule="evenodd"/><path d="M0 0 141 0.000360892" stroke="#7F7F7F" stroke-width="3.4375" stroke-miterlimit="8" fill="none" fill-rule="evenodd" transform="matrix(-1 0 0 1 1667.5 1577.5)"/><path d="M1668.5 1194.5 1668.5 1478.91" stroke="#7F7F7F" stroke-width="3.4375" stroke-miterlimit="8" fill="none" fill-rule="evenodd"/><path d="M0 0 141 0.000360892" stroke="#7F7F7F" stroke-width="3.4375" stroke-miterlimit="8" fill="none" fill-rule="evenodd" transform="matrix(-1 0 0 1 1669.5 1481.5)"/><path d="M1526.5 1528.78 1725.27 1528.78 1725.27 1532.22 1526.5 1532.22ZM1720.69 1521.33 1748.19 1530.5 1720.69 1539.67Z" fill="#7F7F7F"/><path d="M1667.5 1194.78 1733.94 1194.78 1733.94 1198.22 1667.5 1198.22ZM1729.36 1187.33 1756.86 1196.5 1729.36 1205.67Z" fill="#7F7F7F"/><path d="M1238.5 1529.78 1283.67 1529.78 1283.67 1533.22 1238.5 1533.22ZM1279.08 1522.33 1306.58 1531.5 1279.08 1540.67Z" fill="#7F7F7F"/><path d="M2851.5 1247.5C2840.73 1247.5 2832 1242.15 2832 1235.54L2832 1191.96C2832 1185.35 2823.27 1180 2812.5 1180 2823.27 1180 2832 1174.65 2832 1168.04L2832 1124.46C2832 1117.85 2840.73 1112.5 2851.5 1112.5" stroke="#7F7F7F" stroke-width="1.14583" stroke-miterlimit="8" fill="none" fill-rule="evenodd"/><path d="M2851.5 1460.5C2840.73 1460.5 2832 1455.93 2832 1450.28L2832 1404.22C2832 1398.57 2823.27 1394 2812.5 1394 2823.27 1394 2832 1389.43 2832 1383.78L2832 1337.72C2832 1332.07 2840.73 1327.5 2851.5 1327.5" stroke="#7F7F7F" stroke-width="1.14583" stroke-miterlimit="8" fill="none" fill-rule="evenodd"/><path d="M2850.5 1318.5C2839.73 1318.5 2831 1315.49 2831 1311.77L2831 1293.73C2831 1290.01 2822.27 1287 2811.5 1287 2822.27 1287 2831 1283.99 2831 1280.27L2831 1262.23C2831 1258.51 2839.73 1255.5 2850.5 1255.5" stroke="#7F7F7F" stroke-width="1.14583" stroke-miterlimit="8" fill="none" fill-rule="evenodd"/><path d="M2659 1479 2703.6 1479" stroke="#7F7F7F" stroke-width="2.29167" stroke-miterlimit="8" fill="none" fill-rule="evenodd"/><path d="M0 0 0.000360892 299.788" stroke="#7F7F7F" stroke-width="2.29167" stroke-miterlimit="8" fill="none" fill-rule="evenodd" transform="matrix(1 0 0 -1 2704 1478.79)"/><path d="M0 0 41.3879 0.000360892" stroke="#7F7F7F" stroke-width="2.29167" stroke-miterlimit="8" fill="none" fill-rule="evenodd" transform="matrix(-1 0 0 1 2745.39 1287)"/><text fill="#7F7F7F" font-family="Cambria Math,Cambria Math_MSFontService,sans-serif" font-weight="400" font-size="32" transform="translate(2770.53 1290)">ğ‘—<tspan font-size="23" x="10.3584" y="6">2</tspan><tspan font-size="32" x="1.45264" y="-105">ğ‘—</tspan><tspan font-size="23" x="11.0776" y="-99">1</tspan></text><path d="M0 0 41.3879 0.000360892" stroke="#7F7F7F" stroke-width="2.29167" stroke-miterlimit="8" fill="none" fill-rule="evenodd" transform="matrix(-1 0 0 1 2745.39 1179)"/><text fill="#7F7F7F" font-family="Cambria Math,Cambria Math_MSFontService,sans-serif" font-weight="400" font-size="32" transform="translate(2772.16 1887)">ğ‘—<tspan font-size="23" x="10.3584" y="7">2</tspan><tspan font-size="32" x="1.45264" y="-72">ğ‘—</tspan><tspan font-size="23" x="11.0776" y="-65">1</tspan><tspan font-size="32" x="2.67017" y="72">ğ‘—</tspan><tspan font-size="23" x="13.0286" y="78">3</tspan></text><rect x="2035.5" y="1177.5" width="102" height="39.0002" stroke="#FFFFFF" stroke-width="4.58333" stroke-miterlimit="8" fill="#FFFFFF"/><g clip-path="url(#clip31)"><g clip-path="url(#clip32)"><g clip-path="url(#clip33)"><path d="M21.0937 106.904 113.906 106.904C117.008 106.894 119.521 104.382 119.531 101.279L119.531 45.0126C119.521 41.9101 117.008 39.3976 113.906 39.3876L66.0936 39.3876 50.6249 29.122C49.7395 28.4439 48.6455 28.0958 47.5312 28.1376L21.0937 28.1376C17.991 28.1469 15.478 30.6598 15.4687 33.7626L15.4687 101.278C15.4772 104.381 17.9904 106.895 21.0937 106.904ZM18.2812 33.7598C18.2812 32.2064 19.5404 30.9473 21.0937 30.9473L47.5312 30.9473C47.9865 30.9152 48.44 31.0317 48.8235 31.2792L48.9416 31.3776 49.0696 31.462 64.5383 41.7276 65.2414 42.1973 113.906 42.1973C115.459 42.1973 116.719 43.4564 116.719 45.0098L116.719 101.278C116.719 102.831 115.459 104.09 113.906 104.09L21.0937 104.09C19.5404 104.09 18.2812 102.831 18.2812 101.278Z" fill="#7F7F7F" transform="matrix(1 0 0 1 2018 1122)"/></g></g></g><text fill="#7F7F7F" font-family="Arial,Arial_MSFontService,sans-serif" font-weight="400" font-size="37" transform="matrix(1 0 0 1 2060.39 1210)">A B</text><rect x="2036.5" y="1515.5" width="101" height="38.9999" stroke="#FFFFFF" stroke-width="4.58333" stroke-miterlimit="8" fill="#FFFFFF"/><g clip-path="url(#clip34)"><g clip-path="url(#clip35)"><g clip-path="url(#clip36)"><path d="M20.9375 106.113 113.063 106.113C116.142 106.103 118.636 103.609 118.646 100.529L118.646 44.6792C118.636 41.5998 116.142 39.1058 113.063 39.0959L65.6042 39.0959 50.25 28.9063C49.3712 28.2333 48.2852 27.8878 47.1792 27.9292L20.9375 27.9292C17.8577 27.9385 15.3634 30.4328 15.3542 33.5126L15.3542 100.528C15.3625 103.608 17.8572 106.103 20.9375 106.113ZM18.1458 33.5098C18.1458 31.9679 19.3957 30.7181 20.9375 30.7181L47.1792 30.7181C47.6312 30.6863 48.0813 30.8019 48.462 31.0475L48.5792 31.1452 48.7062 31.229 64.0604 41.4186 64.7583 41.8848 113.063 41.8848C114.604 41.8848 115.854 43.1346 115.854 44.6765L115.854 100.528C115.854 102.07 114.604 103.32 113.063 103.32L20.9375 103.32C19.3957 103.32 18.1458 102.07 18.1458 100.528Z" fill="#7F7F7F" transform="matrix(1.00746 0 0 1 2019 1461)"/></g></g></g><text fill="#7F7F7F" font-family="Arial,Arial_MSFontService,sans-serif" font-weight="400" font-size="37" transform="matrix(1 0 0 1 2077.52 1548)">C</text><rect x="2035.5" y="1845.5" width="102" height="38.9999" stroke="#FFFFFF" stroke-width="4.58333" stroke-miterlimit="8" fill="#FFFFFF"/><g clip-path="url(#clip37)"><g clip-path="url(#clip38)"><g clip-path="url(#clip39)"><path d="M2039.94 1897.11 2132.06 1897.11C2135.14 1897.1 2137.64 1894.61 2137.65 1891.53L2137.65 1835.68C2137.64 1832.6 2135.14 1830.11 2132.06 1830.1L2084.6 1830.1 2069.25 1819.91C2068.37 1819.23 2067.29 1818.89 2066.18 1818.93L2039.94 1818.93C2036.86 1818.94 2034.36 1821.43 2034.35 1824.51L2034.35 1891.53C2034.36 1894.61 2036.86 1897.1 2039.94 1897.11ZM2037.15 1824.51C2037.15 1822.97 2038.4 1821.72 2039.94 1821.72L2066.18 1821.72C2066.63 1821.69 2067.08 1821.8 2067.46 1822.05L2067.58 1822.15 2067.71 1822.23 2083.06 1832.42 2083.76 1832.88 2132.06 1832.88C2133.6 1832.88 2134.85 1834.13 2134.85 1835.68L2134.85 1891.53C2134.85 1893.07 2133.6 1894.32 2132.06 1894.32L2039.94 1894.32C2038.4 1894.32 2037.15 1893.07 2037.15 1891.53Z" fill="#7F7F7F"/></g></g></g><text fill="#7F7F7F" font-family="Arial,Arial_MSFontService,sans-serif" font-weight="400" font-size="37" transform="matrix(1 0 0 1 2060.58 1878)">D E</text><path d="M0 0 41.3879 0.000360892" stroke="#7F7F7F" stroke-width="2.29167" stroke-miterlimit="8" fill="none" fill-rule="evenodd" transform="matrix(-1 0 0 1 2746.39 1394)"/><path d="M2659 1548 2703.6 1548" stroke="#7F7F7F" stroke-width="2.29167" stroke-miterlimit="8" fill="none" fill-rule="evenodd"/><path d="M0 0 0.000360892 408.647" stroke="#7F7F7F" stroke-width="2.29167" stroke-miterlimit="8" fill="none" fill-rule="evenodd" transform="matrix(1 0 0 -1 2704 1956.65)"/><path d="M0 0 41.3879 0.000360892" stroke="#7F7F7F" stroke-width="2.29167" stroke-miterlimit="8" fill="none" fill-rule="evenodd" transform="matrix(-1 0 0 1 2745.39 1881)"/><path d="M0 0 41.3879 0.000360892" stroke="#7F7F7F" stroke-width="2.29167" stroke-miterlimit="8" fill="none" fill-rule="evenodd" transform="matrix(-1 0 0 1 2745.39 1808)"/><path d="M0 0 41.3879 0.000360892" stroke="#7F7F7F" stroke-width="2.29167" stroke-miterlimit="8" fill="none" fill-rule="evenodd" transform="matrix(-1 0 0 1 2746.39 1955)"/></g></svg>