<svg width="2165" height="926" xmlns="http://www.w3.org/2000/svg" xmlns:xlink="http://www.w3.org/1999/xlink" xml:space="preserve" overflow="hidden"><defs><clipPath id="clip0"><rect x="983" y="1290" width="2165" height="926"/></clipPath><clipPath id="clip1"><rect x="1466" y="1295" width="151" height="152"/></clipPath><clipPath id="clip2"><rect x="1466" y="1295" width="151" height="152"/></clipPath><clipPath id="clip3"><rect x="1466" y="1295" width="151" height="152"/></clipPath><clipPath id="clip4"><rect x="983" y="1293" width="163" height="164"/></clipPath><clipPath id="clip5"><rect x="983" y="1293" width="163" height="164"/></clipPath><clipPath id="clip6"><rect x="983" y="1293" width="163" height="164"/></clipPath><clipPath id="clip7"><rect x="996" y="1610" width="109" height="106"/></clipPath><clipPath id="clip8"><rect x="996" y="1610" width="109" height="106"/></clipPath><clipPath id="clip9"><rect x="996" y="1610" width="109" height="106"/></clipPath><clipPath id="clip10"><rect x="2060" y="1292" width="161" height="163"/></clipPath><clipPath id="clip11"><rect x="2060" y="1292" width="161" height="163"/></clipPath><clipPath id="clip12"><rect x="2060" y="1292" width="161" height="163"/></clipPath><clipPath id="clip13"><rect x="2247" y="1292" width="160" height="163"/></clipPath><clipPath id="clip14"><rect x="2247" y="1292" width="160" height="163"/></clipPath><clipPath id="clip15"><rect x="2247" y="1292" width="160" height="163"/></clipPath><clipPath id="clip16"><rect x="2698" y="1294" width="151" height="153"/></clipPath><clipPath id="clip17"><rect x="2698" y="1294" width="151" height="153"/></clipPath><clipPath id="clip18"><rect x="2698" y="1294" width="151" height="153"/></clipPath><clipPath id="clip19"><rect x="996" y="1725" width="109" height="108"/></clipPath><clipPath id="clip20"><rect x="996" y="1725" width="109" height="108"/></clipPath><clipPath id="clip21"><rect x="996" y="1725" width="109" height="108"/></clipPath><clipPath id="clip22"><rect x="996" y="1842" width="109" height="109"/></clipPath><clipPath id="clip23"><rect x="996" y="1842" width="109" height="109"/></clipPath><clipPath id="clip24"><rect x="996" y="1842" width="109" height="109"/></clipPath><clipPath id="clip25"><rect x="996" y="1960" width="109" height="106"/></clipPath><clipPath id="clip26"><rect x="996" y="1960" width="109" height="106"/></clipPath><clipPath id="clip27"><rect x="996" y="1960" width="109" height="106"/></clipPath><clipPath id="clip28"><rect x="996" y="2075" width="109" height="109"/></clipPath><clipPath id="clip29"><rect x="996" y="2075" width="109" height="109"/></clipPath><clipPath id="clip30"><rect x="996" y="2075" width="109" height="109"/></clipPath></defs><g clip-path="url(#clip0)" transform="translate(-983 -1290)"><path d="M2056 1645.83C2056 1612.24 2083.24 1585 2116.83 1585L2360.17 1585C2393.76 1585 2421 1612.24 2421 1645.83L2421 1920.17C2421 1953.76 2393.76 1981 2360.17 1981L2116.83 1981C2083.24 1981 2056 1953.76 2056 1920.17Z" fill="#9DC3E6" fill-rule="evenodd"/><rect x="2642" y="1728" width="501" height="119" fill="#FFF2CC" fill-opacity="0.45098"/><rect x="1351" y="1959" width="484" height="235" fill="#FFF2CC" fill-opacity="0.45098"/><rect x="1351" y="1607" width="484" height="353" fill="#E2F0D9" fill-opacity="0.54902"/><rect x="2642" y="1610" width="502" height="120" fill="#E2F0D9" fill-opacity="0.54902"/><g clip-path="url(#clip1)"><g clip-path="url(#clip2)"><g clip-path="url(#clip3)"><path d="M120.313 123.438 120.313 29.6875C120.313 20.5532 96.9673 15.625 75.0001 15.625 53.0329 15.625 29.6875 20.5532 29.6875 29.6875L29.6875 123.438C29.6875 132.572 53.0329 137.5 75.0001 137.5 96.9673 137.5 120.313 132.572 120.313 123.438ZM75.0001 18.75C99.1455 18.75 117.188 24.5313 117.188 29.6875 117.188 34.8438 99.1455 40.6251 75.0001 40.6251 50.8548 40.6251 32.8125 34.8438 32.8125 29.6875 32.8125 24.5313 50.8548 18.75 75.0001 18.75ZM32.8125 35.0938C39.8891 40.7501 57.8642 43.7501 75.0001 43.7501 92.1361 43.7501 110.111 40.7501 117.188 35.0938L117.188 60.9376C117.188 66.0938 99.1455 71.8751 75.0001 71.8751 50.8548 71.8751 32.8125 66.0938 32.8125 60.9376ZM32.8125 66.3438C39.8891 72.0001 57.8642 75.0001 75.0001 75.0001 92.1361 75.0001 110.111 72.0001 117.188 66.3438L117.188 92.1876C117.188 97.3439 99.1455 103.125 75.0001 103.125 50.8548 103.125 32.8125 97.3439 32.8125 92.1876ZM32.8125 123.438 32.8125 97.5939C39.8891 103.25 57.8642 106.25 75.0001 106.25 92.1361 106.25 110.111 103.25 117.188 97.5939L117.188 123.438C117.188 128.594 99.1455 134.375 75.0001 134.375 50.8548 134.375 32.8125 128.594 32.8125 123.438Z" fill="#7F7F7F" transform="matrix(1.00666 0 0 1 1466 1296)"/><path d="M109.375 56.2501C109.375 57.976 107.976 59.3751 106.25 59.3751 104.524 59.3751 103.125 57.976 103.125 56.2501 103.125 54.5242 104.524 53.1251 106.25 53.1251 107.976 53.1251 109.375 54.5242 109.375 56.2501Z" fill="#7F7F7F" transform="matrix(1.00666 0 0 1 1466 1296)"/><path d="M109.375 87.5001C109.375 89.226 107.976 90.6251 106.25 90.6251 104.524 90.6251 103.125 89.226 103.125 87.5001 103.125 85.7742 104.524 84.3751 106.25 84.3751 107.976 84.3751 109.375 85.7742 109.375 87.5001Z" fill="#7F7F7F" transform="matrix(1.00666 0 0 1 1466 1296)"/><path d="M109.375 118.75C109.375 120.476 107.976 121.875 106.25 121.875 104.524 121.875 103.125 120.476 103.125 118.75 103.125 117.024 104.524 115.625 106.25 115.625 107.976 115.625 109.375 117.024 109.375 118.75Z" fill="#7F7F7F" transform="matrix(1.00666 0 0 1 1466 1296)"/></g></g></g><g clip-path="url(#clip4)"><g clip-path="url(#clip5)"><g clip-path="url(#clip6)"><path d="M130.137 23.625 40.9927 23.625 23.625 40.9927 23.625 130.137C23.6297 134.685 27.3154 138.37 31.8634 138.375L130.137 138.375C134.685 138.37 138.37 134.685 138.375 130.137L138.375 31.8634C138.37 27.3154 134.685 23.6297 130.137 23.625ZM52.3125 27 109.687 27 109.687 65.8125C109.687 66.7445 108.932 67.5 108 67.5L54 67.5C53.068 67.5 52.3125 66.7445 52.3125 65.8125ZM135 130.137C134.997 132.821 132.821 134.997 130.137 135L31.8634 135C29.1785 134.997 27.0029 132.821 27 130.137L27 42.3866 42.39 27 48.9375 27 48.9375 65.8125C48.9375 68.6085 51.2039 70.875 54 70.875L108 70.875C110.796 70.875 113.062 68.6085 113.062 65.8125L113.062 27 130.137 27C132.821 27.0029 134.997 29.1785 135 31.8634Z" fill="#7F7F7F" transform="matrix(1 0 0 1 983 1294)"/><path d="M80.9999 80.9999C70.7482 80.9999 62.4375 89.3107 62.4375 99.5624 62.4375 109.814 70.7482 118.125 80.9999 118.125 91.2517 118.125 99.5624 109.814 99.5624 99.5624 99.5503 89.3156 91.2468 81.0121 80.9999 80.9999ZM80.9999 114.75C72.6121 114.75 65.8125 107.95 65.8125 99.5624 65.8125 91.1746 72.6121 84.3749 80.9999 84.3749 89.3878 84.3749 96.1874 91.1746 96.1874 99.5624 96.1771 107.946 89.3836 114.74 80.9999 114.75Z" fill="#7F7F7F" transform="matrix(1 0 0 1 983 1294)"/><path d="M75.9375 94.4999 86.0624 94.4999 86.0624 104.625 75.9375 104.625Z" fill="#7F7F7F" transform="matrix(1 0 0 1 983 1294)"/><path d="M74.25 32.0625 60.75 32.0625 60.75 62.4375 74.25 62.4375ZM70.875 59.0625 64.125 59.0625 64.125 35.4375 70.875 35.4375Z" fill="#7F7F7F" transform="matrix(1 0 0 1 983 1294)"/></g></g></g><g clip-path="url(#clip7)"><g clip-path="url(#clip8)"><g clip-path="url(#clip9)"><path d="M19.875 8.83332 19.875 97.1665 86.1249 97.1665 86.1249 32.6678 62.2904 8.83332ZM62.9562 12.6217 82.3365 32.002C82.3408 32.0063 82.3407 32.0134 82.3364 32.0176 82.3343 32.0196 82.3316 32.0208 82.3288 32.0208L62.9374 32.0208 62.9374 12.6294C62.9375 12.6234 62.9425 12.6185 62.9486 12.6185 62.9514 12.6186 62.9542 12.6197 62.9562 12.6217ZM22.0833 94.9582 22.0833 11.0417 60.7291 11.0417 60.7291 34.2291 83.9166 34.2291 83.9166 94.9582Z" fill="#548235" transform="matrix(1.00944 0 0 1 997 1610)"/></g></g></g><text fill="#548235" font-family="Calibri,Calibri_MSFontService,sans-serif" font-weight="400" font-size="46" transform="matrix(1 0 0 1 1035.63 1683)">A</text><path d="M1352.5 1719.5 1836.71 1722.6" stroke="#FFFFFF" stroke-width="3.4375" stroke-miterlimit="8" fill="none" fill-rule="evenodd"/><path d="M1352.5 1841.5 1836.84 1841.5" stroke="#FFFFFF" stroke-width="3.4375" stroke-miterlimit="8" fill="none" fill-rule="evenodd"/><path d="M1352.5 1960.5 1836.71 1960.5" stroke="#FFFFFF" stroke-width="3.4375" stroke-miterlimit="8" fill="none" fill-rule="evenodd"/><path d="M1352.5 1604.5 1836.71 1604.5" stroke="#A5A5A5" stroke-width="6.875" stroke-miterlimit="8" fill="none" fill-rule="evenodd"/><path d="M2643.5 1608.5 3144.35 1608.5" stroke="#A5A5A5" stroke-width="6.875" stroke-miterlimit="8" fill="none" fill-rule="evenodd"/><path d="M2642.5 1728.5 3143.35 1728.5" stroke="#FFFFFF" stroke-width="3.4375" stroke-miterlimit="8" fill="none" fill-rule="evenodd"/><path d="M1352.5 2080.5 1837.11 2080.5" stroke="#FFFFFF" stroke-width="3.4375" stroke-miterlimit="8" fill="none" fill-rule="evenodd"/><path d="M1.14583-3.41255e-06 1.14613 98.2602-1.14554 98.2602-1.14583 3.41255e-06ZM9.16695 93.6768 0.000360892 121.177-9.16639 93.6769Z" fill="#548235" transform="matrix(1 0 0 -1 2152 1569.18)"/><path d="M1143.5 1665.78 1157.25 1665.78 1157.25 1669.22 1143.5 1669.22ZM1167.56 1665.78 1181.31 1665.78 1181.31 1669.22 1167.56 1669.22ZM1191.63 1665.78 1205.38 1665.78 1205.38 1669.22 1191.63 1669.22ZM1215.69 1665.78 1229.44 1665.78 1229.44 1669.22 1215.69 1669.22ZM1239.75 1665.78 1253.5 1665.78 1253.5 1669.22 1239.75 1669.22ZM1263.81 1665.78 1277.56 1665.78 1277.56 1669.22 1263.81 1669.22ZM1287.88 1665.78 1301.63 1665.78 1301.63 1669.22 1287.88 1669.22ZM1311.94 1665.78 1312.4 1665.78 1312.4 1669.22 1311.94 1669.22ZM1143.5 1676.67C1138.44 1676.67 1134.33 1672.56 1134.33 1667.5 1134.33 1662.44 1138.44 1658.33 1143.5 1658.33 1148.56 1658.33 1152.67 1662.44 1152.67 1667.5 1152.67 1672.56 1148.56 1676.67 1143.5 1676.67ZM1312.4 1658.33C1317.46 1658.33 1321.56 1662.44 1321.56 1667.5 1321.56 1672.56 1317.46 1676.67 1312.4 1676.67 1307.34 1676.67 1303.23 1672.56 1303.23 1667.5 1303.23 1662.44 1307.34 1658.33 1312.4 1658.33Z" fill="#548235"/><path d="M1143.5 1782.78 1157.25 1782.78 1157.25 1786.22 1143.5 1786.22ZM1167.56 1782.78 1181.31 1782.78 1181.31 1786.22 1167.56 1786.22ZM1191.63 1782.78 1205.38 1782.78 1205.38 1786.22 1191.63 1786.22ZM1215.69 1782.78 1229.44 1782.78 1229.44 1786.22 1215.69 1786.22ZM1239.75 1782.78 1253.5 1782.78 1253.5 1786.22 1239.75 1786.22ZM1263.81 1782.78 1277.56 1782.78 1277.56 1786.22 1263.81 1786.22ZM1287.88 1782.78 1301.63 1782.78 1301.63 1786.22 1287.88 1786.22ZM1311.94 1782.78 1312.4 1782.78 1312.4 1786.22 1311.94 1786.22ZM1143.5 1793.67C1138.44 1793.67 1134.33 1789.56 1134.33 1784.5 1134.33 1779.44 1138.44 1775.33 1143.5 1775.33 1148.56 1775.33 1152.67 1779.44 1152.67 1784.5 1152.67 1789.56 1148.56 1793.67 1143.5 1793.67ZM1312.4 1775.33C1317.46 1775.33 1321.56 1779.44 1321.56 1784.5 1321.56 1789.56 1317.46 1793.67 1312.4 1793.67 1307.34 1793.67 1303.23 1789.56 1303.23 1784.5 1303.23 1779.44 1307.34 1775.33 1312.4 1775.33Z" fill="#548235"/><path d="M1143.5 1899.78 1157.25 1899.78 1157.25 1903.22 1143.5 1903.22ZM1167.56 1899.78 1181.31 1899.78 1181.31 1903.22 1167.56 1903.22ZM1191.63 1899.78 1205.38 1899.78 1205.38 1903.22 1191.63 1903.22ZM1215.69 1899.78 1229.44 1899.78 1229.44 1903.22 1215.69 1903.22ZM1239.75 1899.78 1253.5 1899.78 1253.5 1903.22 1239.75 1903.22ZM1263.81 1899.78 1277.56 1899.78 1277.56 1903.22 1263.81 1903.22ZM1287.88 1899.78 1301.63 1899.78 1301.63 1903.22 1287.88 1903.22ZM1311.94 1899.78 1312.4 1899.78 1312.4 1903.22 1311.94 1903.22ZM1143.5 1910.67C1138.44 1910.67 1134.33 1906.56 1134.33 1901.5 1134.33 1896.44 1138.44 1892.33 1143.5 1892.33 1148.56 1892.33 1152.67 1896.44 1152.67 1901.5 1152.67 1906.56 1148.56 1910.67 1143.5 1910.67ZM1312.4 1892.33C1317.46 1892.33 1321.56 1896.44 1321.56 1901.5 1321.56 1906.56 1317.46 1910.67 1312.4 1910.67 1307.34 1910.67 1303.23 1906.56 1303.23 1901.5 1303.23 1896.44 1307.34 1892.33 1312.4 1892.33Z" fill="#548235"/><path d="M1143.5 2017.78 1157.25 2017.78 1157.25 2021.22 1143.5 2021.22ZM1167.56 2017.78 1181.31 2017.78 1181.31 2021.22 1167.56 2021.22ZM1191.63 2017.78 1205.38 2017.78 1205.38 2021.22 1191.63 2021.22ZM1215.69 2017.78 1229.44 2017.78 1229.44 2021.22 1215.69 2021.22ZM1239.75 2017.78 1253.5 2017.78 1253.5 2021.22 1239.75 2021.22ZM1263.81 2017.78 1277.56 2017.78 1277.56 2021.22 1263.81 2021.22ZM1287.88 2017.78 1301.63 2017.78 1301.63 2021.22 1287.88 2021.22ZM1311.94 2017.78 1312.4 2017.78 1312.4 2021.22 1311.94 2021.22ZM1143.5 2028.67C1138.44 2028.67 1134.33 2024.56 1134.33 2019.5 1134.33 2014.44 1138.44 2010.33 1143.5 2010.33 1148.56 2010.33 1152.67 2014.44 1152.67 2019.5 1152.67 2024.56 1148.56 2028.67 1143.5 2028.67ZM1312.4 2010.33C1317.46 2010.33 1321.56 2014.44 1321.56 2019.5 1321.56 2024.56 1317.46 2028.67 1312.4 2028.67 1307.34 2028.67 1303.23 2024.56 1303.23 2019.5 1303.23 2014.44 1307.34 2010.33 1312.4 2010.33Z" fill="#FFC000"/><path d="M1143.5 2134.78 1157.25 2134.78 1157.25 2138.22 1143.5 2138.22ZM1167.56 2134.78 1181.31 2134.78 1181.31 2138.22 1167.56 2138.22ZM1191.63 2134.78 1205.38 2134.78 1205.38 2138.22 1191.63 2138.22ZM1215.69 2134.78 1229.44 2134.78 1229.44 2138.22 1215.69 2138.22ZM1239.75 2134.78 1253.5 2134.78 1253.5 2138.22 1239.75 2138.22ZM1263.81 2134.78 1277.56 2134.78 1277.56 2138.22 1263.81 2138.22ZM1287.88 2134.78 1301.63 2134.78 1301.63 2138.22 1287.88 2138.22ZM1311.94 2134.78 1312.4 2134.78 1312.4 2138.22 1311.94 2138.22ZM1143.5 2145.67C1138.44 2145.67 1134.33 2141.56 1134.33 2136.5 1134.33 2131.44 1138.44 2127.33 1143.5 2127.33 1148.56 2127.33 1152.67 2131.44 1152.67 2136.5 1152.67 2141.56 1148.56 2145.67 1143.5 2145.67ZM1312.4 2127.33C1317.46 2127.33 1321.56 2131.44 1321.56 2136.5 1321.56 2141.56 1317.46 2145.67 1312.4 2145.67 1307.34 2145.67 1303.23 2141.56 1303.23 2136.5 1303.23 2131.44 1307.34 2127.33 1312.4 2127.33Z" fill="#FFC000"/><text fill="#7F7F7F" font-family="Calibri,Calibri_MSFontService,sans-serif" font-weight="400" font-size="55" transform="matrix(1 0 0 1 1135.13 1358)">data<tspan font-size="55" x="0" y="66">asset</tspan><tspan font-size="55" x="115.431" y="66">s</tspan><tspan font-size="55" x="466.636" y="0">meta</tspan><tspan font-size="55" x="466.636" y="66">table</tspan><tspan font-size="55" x="1700.53" y="0">inventory</tspan><tspan font-size="55" x="1700.53" y="66">table</tspan></text><g clip-path="url(#clip10)"><g clip-path="url(#clip11)"><g clip-path="url(#clip12)"><path d="M51.9895 109.01 109.01 109.01 109.01 51.9895 51.9895 51.9895ZM55.3437 55.3437 105.656 55.3437 105.656 105.656 55.3437 105.656Z" fill="#548235" transform="matrix(1 0 0 1 2060 1293)"/><path d="M140.875 48.6354 140.875 45.2812 125.781 45.2812 125.781 43.6041C125.776 38.9752 122.025 35.2243 117.396 35.2187L115.719 35.2187 115.719 20.125 112.364 20.125 112.364 35.2187 102.302 35.2187 102.302 20.125 98.9478 20.125 98.9478 35.2187 88.8853 35.2187 88.8853 20.125 85.5312 20.125 85.5312 35.2187 75.4687 35.2187 75.4687 20.125 72.1145 20.125 72.1145 35.2187 62.052 35.2187 62.052 20.125 58.6979 20.125 58.6979 35.2187 48.6354 35.2187 48.6354 20.125 45.2812 20.125 45.2812 35.2187 43.6041 35.2187C38.9752 35.2243 35.2243 38.9752 35.2187 43.6041L35.2187 45.2812 20.125 45.2812 20.125 48.6354 35.2187 48.6354 35.2187 58.6979 20.125 58.6979 20.125 62.052 35.2187 62.052 35.2187 72.1145 20.125 72.1145 20.125 75.4687 35.2187 75.4687 35.2187 85.5312 20.125 85.5312 20.125 88.8853 35.2187 88.8853 35.2187 98.9478 20.125 98.9478 20.125 102.302 35.2187 102.302 35.2187 112.364 20.125 112.364 20.125 115.719 35.2187 115.719 35.2187 117.396C35.2243 122.025 38.9752 125.776 43.6041 125.781L45.2812 125.781 45.2812 140.875 48.6354 140.875 48.6354 125.781 58.6979 125.781 58.6979 140.875 62.052 140.875 62.052 125.781 72.1145 125.781 72.1145 140.875 75.4687 140.875 75.4687 125.781 85.5312 125.781 85.5312 140.875 88.8853 140.875 88.8853 125.781 98.9478 125.781 98.9478 140.875 102.302 140.875 102.302 125.781 112.364 125.781 112.364 140.875 115.719 140.875 115.719 125.781 117.396 125.781C122.025 125.776 125.776 122.025 125.781 117.396L125.781 115.719 140.875 115.719 140.875 112.364 125.781 112.364 125.781 102.302 140.875 102.302 140.875 98.9478 125.781 98.9478 125.781 88.8853 140.875 88.8853 140.875 85.5312 125.781 85.5312 125.781 75.4687 140.875 75.4687 140.875 72.1145 125.781 72.1145 125.781 62.052 140.875 62.052 140.875 58.6979 125.781 58.6979 125.781 48.6354ZM122.427 117.396C122.427 120.174 120.174 122.427 117.396 122.427L43.6041 122.427C40.8254 122.427 38.5729 120.174 38.5729 117.396L38.5729 43.6041C38.5729 40.8254 40.8254 38.5729 43.6041 38.5729L117.396 38.5729C120.174 38.5729 122.427 40.8254 122.427 43.6041Z" fill="#548235" transform="matrix(1 0 0 1 2060 1293)"/></g></g></g><g clip-path="url(#clip13)"><g clip-path="url(#clip14)"><g clip-path="url(#clip15)"><path d="M51.6666 108.333 108.333 108.333 108.333 51.6666 51.6666 51.6666ZM54.9999 54.9999 105 54.9999 105 105 54.9999 105Z" fill="#FFC000" transform="matrix(1 0 0 1.00625 2247 1293)"/><path d="M140 48.3333 140 45 125 45 125 43.3333C124.994 38.7331 121.267 35.0055 116.667 35L115 35 115 20 111.667 20 111.667 35 101.667 35 101.667 20 98.3332 20 98.3332 35 88.3332 35 88.3332 20 84.9999 20 84.9999 35 74.9999 35 74.9999 20 71.6666 20 71.6666 35 61.6666 35 61.6666 20 58.3333 20 58.3333 35 48.3333 35 48.3333 20 45 20 45 35 43.3333 35C38.7331 35.0055 35.0055 38.7331 35 43.3333L35 45 20 45 20 48.3333 35 48.3333 35 58.3333 20 58.3333 20 61.6666 35 61.6666 35 71.6666 20 71.6666 20 74.9999 35 74.9999 35 84.9999 20 84.9999 20 88.3332 35 88.3332 35 98.3332 20 98.3332 20 101.667 35 101.667 35 111.667 20 111.667 20 115 35 115 35 116.667C35.0055 121.267 38.7331 124.994 43.3333 125L45 125 45 140 48.3333 140 48.3333 125 58.3333 125 58.3333 140 61.6666 140 61.6666 125 71.6666 125 71.6666 140 74.9999 140 74.9999 125 84.9999 125 84.9999 140 88.3332 140 88.3332 125 98.3332 125 98.3332 140 101.667 140 101.667 125 111.667 125 111.667 140 115 140 115 125 116.667 125C121.267 124.994 124.994 121.267 125 116.667L125 115 140 115 140 111.667 125 111.667 125 101.667 140 101.667 140 98.3332 125 98.3332 125 88.3332 140 88.3332 140 84.9999 125 84.9999 125 74.9999 140 74.9999 140 71.6666 125 71.6666 125 61.6666 140 61.6666 140 58.3333 125 58.3333 125 48.3333ZM121.667 116.667C121.667 119.428 119.428 121.667 116.667 121.667L43.3333 121.667C40.5718 121.667 38.3333 119.428 38.3333 116.667L38.3333 43.3333C38.3333 40.5718 40.5718 38.3333 43.3333 38.3333L116.667 38.3333C119.428 38.3333 121.667 40.5718 121.667 43.3333Z" fill="#FFC000" transform="matrix(1 0 0 1.00625 2247 1293)"/></g></g></g><path d="M1876.92 1782.85 2020.02 1782.85 2020.02 1785.15 1876.92 1785.15ZM1881.5 1793.17 1854 1784 1881.5 1774.83ZM2015.44 1774.83 2042.94 1784 2015.44 1793.17Z" fill="#548235"/><path d="M2457.92 1788.85 2602.68 1788.85 2602.68 1791.15 2457.92 1791.15ZM2462.5 1799.17 2435 1790 2462.5 1780.83ZM2598.09 1780.83 2625.59 1790 2598.09 1799.17Z" fill="#FFC000"/><path d="M22.9167-1.14583 98.7297-1.14583 98.7297 185.066 97.5839 183.921 172.251 183.921 172.251 186.212 96.438 186.212 96.438 0 97.5839 1.14583 22.9167 1.14583ZM27.5 9.16667 0 0 27.5-9.16667ZM167.668 175.9 195.168 185.066 167.668 194.233Z" fill="#FFC000" transform="matrix(-1 1.22465e-16 1.22465e-16 1 2045.17 1896)"/><text fill="#FFFFFF" font-family="Calibri,Calibri_MSFontService,sans-serif" font-weight="400" font-size="50" transform="matrix(1 0 0 1 2099.78 1951)">pybatchintory</text><path d="M2457.92 1672.85 2602.68 1672.85 2602.68 1675.15 2457.92 1675.15ZM2462.5 1683.17 2435 1674 2462.5 1664.83ZM2598.09 1664.83 2625.59 1674 2598.09 1683.17Z" fill="#548235"/><path d="M2262 1864 2308 1864 2308 1831 2262 1831ZM2270.36 1839.25 2299.64 1839.25 2299.64 1855.75 2270.36 1855.75Z" fill="#FFFFFF" fill-rule="evenodd"/><path d="M2154 1864 2204 1864 2204 1831 2154 1831ZM2162.33 1839.25 2195.67 1839.25 2195.67 1855.75 2162.33 1855.75Z" fill="#FFFFFF" fill-rule="evenodd"/><path d="M2243 1744 2150 1744 2150 1777 2243 1777ZM2234.55 1768.75 2158.45 1768.75 2158.45 1752.25 2234.55 1752.25Z" fill="#FFFFFF" fill-rule="evenodd"/><path d="M2141 1690 2288 1690 2288 1656 2141 1656ZM2149.4 1664.5 2279.6 1664.5 2279.6 1681.5 2149.4 1681.5Z" fill="#FFFFFF" fill-rule="evenodd"/><path d="M2201 1735 2290 1735 2290 1701 2201 1701ZM2209.48 1709.5 2281.52 1709.5 2281.52 1726.5 2209.48 1726.5Z" fill="#FFFFFF" fill-rule="evenodd"/><path d="M2101 1620 2101 1905 2387 1905 2387 1896.62 2109.42 1896.62 2109.42 1620 2101 1620Z" fill="#FFFFFF" fill-rule="evenodd"/><path d="M2208 1819 2296 1819 2296 1786 2208 1786ZM2216.38 1794.25 2287.62 1794.25 2287.62 1810.75 2216.38 1810.75Z" fill="#FFFFFF" fill-rule="evenodd"/><path d="M2208 1864 2259 1864 2259 1831 2208 1831ZM2216.5 1839.25 2250.5 1839.25 2250.5 1855.75 2216.5 1855.75Z" fill="#FFFFFF" fill-rule="evenodd"/><path d="M2312 1864 2359 1864 2359 1831 2312 1831ZM2320.55 1839.25 2350.45 1839.25 2350.45 1855.75 2320.55 1855.75Z" fill="#FFFFFF" fill-rule="evenodd"/><path d="M2341 1744 2248 1744 2248 1777 2341 1777ZM2332.55 1768.75 2256.45 1768.75 2256.45 1752.25 2332.55 1752.25Z" fill="#FFFFFF" fill-rule="evenodd"/><g clip-path="url(#clip16)"><g clip-path="url(#clip17)"><g clip-path="url(#clip18)"><path d="M121.115 124.26 121.115 29.8854C121.115 20.6901 97.6136 15.7292 75.5 15.7292 53.3863 15.7292 29.8854 20.6901 29.8854 29.8854L29.8854 124.26C29.8854 133.456 53.3863 138.417 75.5 138.417 97.6136 138.417 121.115 133.456 121.115 124.26ZM75.5 18.875C99.8062 18.875 117.969 24.6948 117.969 29.8854 117.969 35.076 99.8062 40.8958 75.5 40.8958 51.1937 40.8958 33.0312 35.076 33.0312 29.8854 33.0312 24.6948 51.1937 18.875 75.5 18.875ZM33.0312 35.3277C40.155 41.0216 58.2498 44.0416 75.5 44.0416 92.7501 44.0416 110.845 41.0216 117.969 35.3277L117.969 61.3437C117.969 66.5343 99.8062 72.3541 75.5 72.3541 51.1937 72.3541 33.0312 66.5343 33.0312 61.3437ZM33.0312 66.786C40.155 72.48 58.2498 75.5 75.5 75.5 92.7501 75.5 110.845 72.48 117.969 66.786L117.969 92.802C117.969 97.9926 99.8062 103.812 75.5 103.812 51.1937 103.812 33.0312 97.9926 33.0312 92.802ZM33.0312 124.26 33.0312 98.2443C40.155 103.938 58.2498 106.958 75.5 106.958 92.7501 106.958 110.845 103.938 117.969 98.2443L117.969 124.26C117.969 129.451 99.8062 135.271 75.5 135.271 51.1937 135.271 33.0312 129.451 33.0312 124.26Z" fill="#7F7F7F" transform="matrix(1 0 0 1 2698 1295)"/><path d="M110.104 56.625C110.104 58.3624 108.696 59.7708 106.958 59.7708 105.221 59.7708 103.812 58.3624 103.812 56.625 103.812 54.8876 105.221 53.4791 106.958 53.4791 108.696 53.4791 110.104 54.8876 110.104 56.625Z" fill="#7F7F7F" transform="matrix(1 0 0 1 2698 1295)"/><path d="M110.104 88.0833C110.104 89.8207 108.696 91.2291 106.958 91.2291 105.221 91.2291 103.812 89.8207 103.812 88.0833 103.812 86.3459 105.221 84.9374 106.958 84.9374 108.696 84.9374 110.104 86.3459 110.104 88.0833Z" fill="#7F7F7F" transform="matrix(1 0 0 1 2698 1295)"/><path d="M110.104 119.542C110.104 121.279 108.696 122.687 106.958 122.687 105.221 122.687 103.812 121.279 103.812 119.542 103.812 117.804 105.221 116.396 106.958 116.396 108.696 116.396 110.104 117.804 110.104 119.542Z" fill="#7F7F7F" transform="matrix(1 0 0 1 2698 1295)"/></g></g></g><g clip-path="url(#clip19)"><g clip-path="url(#clip20)"><g clip-path="url(#clip21)"><path d="M20.0625 8.91666 20.0625 98.0832 86.9374 98.0832 86.9374 32.976 62.878 8.91666ZM63.5501 12.7408 83.1133 32.3039C83.1176 32.3083 83.1175 32.3154 83.1132 32.3197 83.1111 32.3217 83.1084 32.3229 83.1055 32.3229L63.5312 32.3229 63.5312 12.7486C63.5313 12.7425 63.5363 12.7376 63.5424 12.7376 63.5453 12.7377 63.5481 12.7388 63.5501 12.7408ZM22.2916 95.8541 22.2916 11.1458 61.302 11.1458 61.302 34.5521 84.7083 34.5521 84.7083 95.8541Z" fill="#548235" transform="matrix(1 0 0 1 997 1726)"/></g></g></g><text fill="#548235" font-family="Calibri,Calibri_MSFontService,sans-serif" font-weight="400" font-size="46" transform="matrix(1 0 0 1 1035.63 1799)">B</text><g clip-path="url(#clip22)"><g clip-path="url(#clip23)"><g clip-path="url(#clip24)"><path d="M1017.06 1851.92 1017.06 1941.08 1083.94 1941.08 1083.94 1875.98 1059.88 1851.92ZM1060.55 1855.74 1080.11 1875.3C1080.12 1875.31 1080.12 1875.32 1080.11 1875.32 1080.11 1875.32 1080.11 1875.32 1080.11 1875.32L1060.53 1875.32 1060.53 1855.75C1060.53 1855.74 1060.54 1855.74 1060.54 1855.74 1060.55 1855.74 1060.55 1855.74 1060.55 1855.74ZM1019.29 1938.85 1019.29 1854.15 1058.3 1854.15 1058.3 1877.55 1081.71 1877.55 1081.71 1938.85Z" fill="#548235"/></g></g></g><text fill="#548235" font-family="Calibri,Calibri_MSFontService,sans-serif" font-weight="400" font-size="46" transform="matrix(1 0 0 1 1035.63 1916)">C</text><g clip-path="url(#clip25)"><g clip-path="url(#clip26)"><g clip-path="url(#clip27)"><path d="M19.875 8.83332 19.875 97.1665 86.1249 97.1665 86.1249 32.6678 62.2904 8.83332ZM62.9562 12.6217 82.3365 32.002C82.3408 32.0063 82.3407 32.0134 82.3364 32.0176 82.3343 32.0196 82.3316 32.0208 82.3288 32.0208L62.9374 32.0208 62.9374 12.6294C62.9375 12.6234 62.9425 12.6185 62.9486 12.6185 62.9514 12.6186 62.9542 12.6197 62.9562 12.6217ZM22.0833 94.9582 22.0833 11.0417 60.7291 11.0417 60.7291 34.2291 83.9166 34.2291 83.9166 94.9582Z" fill="#FFC000" transform="matrix(1.00944 0 0 1 997 1960)"/></g></g></g><text fill="#FFC000" font-family="Calibri,Calibri_MSFontService,sans-serif" font-weight="400" font-size="46" transform="matrix(1 0 0 1 1035.63 2032)">D</text><g clip-path="url(#clip28)"><g clip-path="url(#clip29)"><g clip-path="url(#clip30)"><path d="M1017.06 2084.92 1017.06 2174.08 1083.94 2174.08 1083.94 2108.98 1059.88 2084.92ZM1060.55 2088.74 1080.11 2108.3C1080.12 2108.31 1080.12 2108.32 1080.11 2108.32 1080.11 2108.32 1080.11 2108.32 1080.11 2108.32L1060.53 2108.32 1060.53 2088.75C1060.53 2088.74 1060.54 2088.74 1060.54 2088.74 1060.55 2088.74 1060.55 2088.74 1060.55 2088.74ZM1019.29 2171.85 1019.29 2087.15 1058.3 2087.15 1058.3 2110.55 1081.71 2110.55 1081.71 2171.85Z" fill="#FFC000"/></g></g></g><text fill="#FFC000" font-family="Calibri,Calibri_MSFontService,sans-serif" font-weight="400" font-size="46" transform="matrix(1 0 0 1 1035.63 2149)">E</text><text fill="#548235" font-family="Calibri,Calibri_MSFontService,sans-serif" font-weight="400" font-size="37" transform="matrix(6.12323e-17 1 -1 6.12323e-17 2175.76 1469)">A B C</text><path d="M1.1459 22.9167 1.14619 121.177-1.14547 121.177-1.14577 22.9167ZM-9.16658 27.5 0 0 9.16675 27.5Z" fill="#548235" transform="matrix(1 0 0 -1 2127 1567.18)"/><text fill="#548235" font-family="Calibri,Calibri_MSFontService,sans-serif" font-weight="400" font-size="37" transform="matrix(-1.83697e-16 -1 1 -1.83697e-16 2108.22 1525)">10</text><path d="M1.14583-3.41255e-06 1.14613 98.2602-1.14554 98.2602-1.14583 3.41255e-06ZM9.16695 93.6768 0.000360892 121.177-9.16639 93.6769Z" fill="#FFC000" transform="matrix(1 0 0 -1 2341 1571.18)"/><text fill="#FFC000" font-family="Calibri,Calibri_MSFontService,sans-serif" font-weight="400" font-size="37" transform="matrix(6.12323e-17 1 -1 6.12323e-17 2364.57 1485)">D E</text><path d="M1.1459 22.9167 1.14619 121.177-1.14547 121.177-1.14577 22.9167ZM-9.16658 27.5 0 0 9.16675 27.5Z" fill="#FFC000" transform="matrix(1 0 0 -1 2316 1569.18)"/><text fill="#FFC000" font-family="Calibri,Calibri_MSFontService,sans-serif" font-weight="400" font-size="37" transform="matrix(-1.83697e-16 -1 1 -1.83697e-16 2297.03 1526)">10</text><text fill="#7F7F7F" font-family="Calibri,Calibri_MSFontService,sans-serif" font-weight="400" font-size="46" transform="matrix(1 0 0 1 1408.74 1572)">id<tspan font-size="46" x="148.836" y="0">file</tspan><tspan font-size="46" x="308.173" y="0">size</tspan><tspan font-size="46" x="5.44287" y="104">1</tspan><tspan font-size="46" x="164.305" y="104">A</tspan><tspan font-size="46" x="331.089" y="104">4</tspan><tspan font-size="46" x="5.44287" y="223">2</tspan><tspan font-size="46" x="164.877" y="223">B</tspan><tspan font-size="46" x="331.089" y="223">1</tspan><tspan font-size="46" x="5.44287" y="343">3</tspan><tspan font-size="46" x="165.164" y="343">C</tspan><tspan font-size="46" x="331.089" y="343">5</tspan><tspan font-size="46" x="5.44287" y="462">4</tspan><tspan font-size="46" x="163.445" y="462">D</tspan><tspan font-size="46" x="331.089" y="462">4</tspan><tspan font-size="46" x="5.44287" y="582">5</tspan><tspan font-size="46" x="166.31" y="582">E</tspan><tspan font-size="46" x="331.089" y="582">6</tspan><tspan font-size="46" x="1269.94" y="1">start</tspan><tspan font-size="46" x="1446.03" y="1">end</tspan><tspan font-size="46" x="1617.09" y="1">size</tspan><tspan font-size="46" x="1301.45" y="110">1</tspan><tspan font-size="46" x="1469.81" y="110">3</tspan><tspan font-size="46" x="1628.26" y="110">10</tspan><tspan font-size="46" x="1301.45" y="232">4</tspan><tspan font-size="46" x="1469.81" y="232">5</tspan><tspan font-size="46" x="1628.26" y="232">10</tspan></text></g></svg>