<svg width="366" height="410" xmlns="http://www.w3.org/2000/svg" xmlns:xlink="http://www.w3.org/1999/xlink" xml:space="preserve" overflow="hidden"><defs><clipPath id="clip0"><rect x="2056" y="1585" width="366" height="410"/></clipPath></defs><g clip-path="url(#clip0)" transform="translate(-2056 -1585)"><path d="M2056 1645.84C2056 1612.24 2083.24 1585 2116.84 1585L2360.17 1585C2393.77 1585 2421.01 1612.24 2421.01 1645.84L2421.01 1920.16C2421.01 1953.76 2393.77 1981 2360.17 1981L2116.84 1981C2083.24 1981 2056 1953.76 2056 1920.16Z" fill="#9DC3E6" fill-rule="evenodd"/><text fill="#FFFFFF" font-family="Calibri,Calibri_MSFontService,sans-serif" font-weight="400" font-size="50" transform="matrix(1 0 0 1 2099.78 1951)">pybatchintory</text><path d="M2262 1864 2308 1864 2308 1831 2262 1831ZM2270.36 1839.25 2299.64 1839.25 2299.64 1855.75 2270.36 1855.75Z" fill="#FFFFFF" fill-rule="evenodd"/><path d="M2154 1864 2204 1864 2204 1831 2154 1831ZM2162.33 1839.25 2195.67 1839.25 2195.67 1855.75 2162.33 1855.75Z" fill="#FFFFFF" fill-rule="evenodd"/><path d="M2243 1744 2150 1744 2150 1777 2243 1777ZM2234.55 1768.75 2158.45 1768.75 2158.45 1752.25 2234.55 1752.25Z" fill="#FFFFFF" fill-rule="evenodd"/><path d="M2141 1690 2288 1690 2288 1656 2141 1656ZM2149.4 1664.5 2279.6 1664.5 2279.6 1681.5 2149.4 1681.5Z" fill="#FFFFFF" fill-rule="evenodd"/><path d="M2201 1735 2290 1735 2290 1701 2201 1701ZM2209.48 1709.5 2281.52 1709.5 2281.52 1726.5 2209.48 1726.5Z" fill="#FFFFFF" fill-rule="evenodd"/><path d="M2101 1620 2101 1905 2387 1905 2387 1896.62 2109.42 1896.62 2109.42 1620 2101 1620Z" fill="#FFFFFF" fill-rule="evenodd"/><path d="M2208 1819 2296 1819 2296 1786 2208 1786ZM2216.38 1794.25 2287.62 1794.25 2287.62 1810.75 2216.38 1810.75Z" fill="#FFFFFF" fill-rule="evenodd"/><path d="M2208 1864 2259 1864 2259 1831 2208 1831ZM2216.5 1839.25 2250.5 1839.25 2250.5 1855.75 2216.5 1855.75Z" fill="#FFFFFF" fill-rule="evenodd"/><path d="M2312 1864 2359 1864 2359 1831 2312 1831ZM2320.55 1839.25 2350.45 1839.25 2350.45 1855.75 2320.55 1855.75Z" fill="#FFFFFF" fill-rule="evenodd"/><path d="M2341 1744 2248 1744 2248 1777 2341 1777ZM2332.55 1768.75 2256.45 1768.75 2256.45 1752.25 2332.55 1752.25Z" fill="#FFFFFF" fill-rule="evenodd"/></g></svg>